<svg xmlns="http://www.w3.org/2000/svg" width="35.978" height="23.985" viewBox="0 0 35.978 23.985"><defs><style>.a{fill:#d80027;}.b{fill:#338af3;}.c{fill:#6da544;}.d{fill:#f0f0f0;}</style></defs><g transform="translate(0 -85.337)"><rect class="a" width="35.978" height="23.985" transform="translate(0 85.337)"/><rect class="b" width="35.978" height="7.995" transform="translate(0 85.337)"/><rect class="c" width="35.978" height="7.995" transform="translate(0 101.327)"/><g transform="translate(13.492 93.732)"><path class="d" d="M196.722,211.321a2.923,2.923,0,1,1,1.391-5.5,3.6,3.6,0,1,0,0,5.144A2.91,2.91,0,0,1,196.722,211.321Z" transform="translate(-192 -204.8)"/><path class="d" d="M264.424,227.2l.387,1.089,1.044-.5-.5,1.044,1.089.387-1.089.387.5,1.044-1.044-.5-.387,1.089-.387-1.089-1.044.5.5-1.044-1.089-.387,1.089-.387-.5-1.044,1.044.5Z" transform="translate(-257.453 -225.626)"/></g></g></svg>