<svg xmlns="http://www.w3.org/2000/svg" width="14" height="14.001" viewBox="0 0 14 14.001"><defs><style>.a{fill:#fc5b52;}.b{fill:#fff;}</style></defs><g transform="translate(-0.505 -0.504)"><path class="a" d="M7.845.63l1,.931a.5.5,0,0,0,.46.13l1.341-.31a.494.494,0,0,1,.59.34l.4,1.311a.5.5,0,0,0,.33.33l1.311.4a.5.5,0,0,1,.34.59l-.3,1.351a.5.5,0,0,0,.12.45l.931,1a.5.5,0,0,1,0,.68l-.931,1a.5.5,0,0,0-.12.45l.31,1.341a.494.494,0,0,1-.34.59l-1.311.4a.5.5,0,0,0-.33.33l-.4,1.311a.5.5,0,0,1-.59.34l-1.351-.28a.5.5,0,0,0-.45.12l-1,.931a.5.5,0,0,1-.68,0l-1-.931a.5.5,0,0,0-.45-.12l-1.341.31a.494.494,0,0,1-.59-.34l-.4-1.311a.5.5,0,0,0-.33-.33l-1.311-.4a.5.5,0,0,1-.34-.59l.28-1.351a.5.5,0,0,0-.12-.45l-.931-1a.5.5,0,0,1,0-.68l.931-1a.55.55,0,0,0,.12-.47l-.31-1.341a.5.5,0,0,1,.35-.59l1.311-.4a.5.5,0,0,0,.33-.33l.4-1.311a.5.5,0,0,1,.59-.34l1.341.3a.5.5,0,0,0,.45-.12l1-.931A.52.52,0,0,1,7.845.63Z"/><path class="b" d="M7.645,10.229l2.4,1.211a.3.3,0,0,0,.43-.31l-.41-2.663a.353.353,0,0,1,.08-.26l1.9-1.912a.3.3,0,0,0-.16-.511l-2.663-.42a.31.31,0,0,1-.22-.16L7.775,2.8a.3.3,0,0,0-.531,0L6,5.2a.31.31,0,0,1-.22.16l-2.653.43a.3.3,0,0,0-.17.5l1.9,1.912a.278.278,0,0,1,.08.26l-.41,2.663a.3.3,0,0,0,.43.31l2.4-1.211A.342.342,0,0,1,7.645,10.229Z" transform="translate(0)"/></g></svg>