<svg xmlns="http://www.w3.org/2000/svg" width="14" height="14.001" viewBox="0 0 14 14.001"><defs><style>.a{fill:#2196f3;}.b{fill:#fafafa;}</style></defs><g transform="translate(-0.505 -0.504)"><path class="a" d="M7.845.63l1,.931a.5.5,0,0,0,.46.13l1.341-.31a.494.494,0,0,1,.59.34l.4,1.311a.5.5,0,0,0,.33.33l1.311.4a.5.5,0,0,1,.34.59l-.3,1.351a.5.5,0,0,0,.12.45l.931,1a.5.5,0,0,1,0,.68l-.931,1a.5.5,0,0,0-.12.45l.31,1.341a.494.494,0,0,1-.34.59l-1.311.4a.5.5,0,0,0-.33.33l-.4,1.311a.5.5,0,0,1-.59.34l-1.351-.28a.5.5,0,0,0-.45.12l-1,.931a.5.5,0,0,1-.68,0l-1-.931a.5.5,0,0,0-.45-.12l-1.341.31a.494.494,0,0,1-.59-.34l-.4-1.311a.5.5,0,0,0-.33-.33l-1.311-.4a.5.5,0,0,1-.34-.59l.28-1.351a.5.5,0,0,0-.12-.45l-.931-1a.5.5,0,0,1,0-.68l.931-1a.55.55,0,0,0,.12-.47l-.31-1.341a.5.5,0,0,1,.35-.59l1.311-.4a.5.5,0,0,0,.33-.33l.4-1.311a.5.5,0,0,1,.59-.34l1.341.3a.5.5,0,0,0,.45-.12l1-.931A.52.52,0,0,1,7.845.63Z"/><path class="b" d="M10.74,6.14,7.28,9.61a.546.546,0,0,1-.38.16.522.522,0,0,1-.38-.16L4.79,7.88a.53.53,0,0,1,.75-.75L6.9,8.48,9.99,5.39a.53.53,0,1,1,.75.75Z" transform="translate(0.005 0.005)"/></g></svg>