<svg xmlns="http://www.w3.org/2000/svg" width="20" height="20" viewBox="0 0 20 20"><defs><style>.a{fill:#231f20;}</style></defs><path class="a" d="M17.656,0H2.344A2.346,2.346,0,0,0,0,2.344V17.656A2.346,2.346,0,0,0,2.344,20H17.656A2.346,2.346,0,0,0,20,17.656V2.344A2.346,2.346,0,0,0,17.656,0Zm.781,17.656a.782.782,0,0,1-.781.781H13.2V12.07h2.414l.4-2.422H13.2V7.969A1.152,1.152,0,0,1,14.375,6.8h1.6V4.375h-1.6a3.593,3.593,0,0,0-3.593,3.6V9.648H8.438V12.07h2.345v6.367H2.344a.782.782,0,0,1-.781-.781V2.344a.782.782,0,0,1,.781-.781H17.656a.782.782,0,0,1,.781.781Z"/></svg>