<svg xmlns="http://www.w3.org/2000/svg" width="22.411" height="24" viewBox="0 0 22.411 24"><defs><style>.a{fill:#231f20;}</style></defs><path class="a" d="M7.271,23.922a.521.521,0,0,1-.235-.444V13.889L.105,6.828A.6.6,0,0,1,0,6.463V4.013c0-.286.156-.626.443-.626H11.466l-.573-.756L12.639.939l1.043.756a4.375,4.375,0,0,1,1.094-.444L14.984,0h2.45l.209,1.25a5.043,5.043,0,0,1,1.094.417L19.779.939l1.746,1.72L20.769,3.7a5.774,5.774,0,0,1,.417,1.121l1.225.209v2.45l-1.225.209a5.518,5.518,0,0,1-.417,1.094l.756,1.043L19.779,11.57l-1.043-.756a3.993,3.993,0,0,1-1.094.444l-.209,1.25h-2.45l-.234-1.25h-.131l-2.632,2.632V21.5a.522.522,0,0,1-.261.469l-3.961,1.98L7.558,24H7.544A.52.52,0,0,1,7.271,23.922Zm.651-10.606a.47.47,0,0,1,.156.365v8.964l2.867-1.486V13.681a.549.549,0,0,1,.182-.365l2.267-2.293-.756.548L10.894,9.85l.729-1.068a5.025,5.025,0,0,1-.443-1.094L9.9,7.479v-.7H1.512Zm6.02-3.544a3.731,3.731,0,0,0,1.407.574l.338.052.183,1.068h.677L16.73,10.4l.338-.052A4.475,4.475,0,0,0,18.5,9.772l.286-.182.886.625.495-.495-.651-.912.182-.287a3.9,3.9,0,0,0,.574-1.407l.052-.338,1.016-.183v-.7L20.3,5.733V5.368a4.347,4.347,0,0,0-.574-1.407l-.183-.286.626-.886-.495-.495-.886.651-.313-.209a4.228,4.228,0,0,0-1.407-.574L16.73,2.11l-.183-1.068h-.677L15.688,2.11l-.338.052a4.475,4.475,0,0,0-1.433.574l-.286.183-.886-.626-.495.495.626.912-.183.287a3.912,3.912,0,0,0-.574,1.407l-.078.338-1.094.183v.677l1.094.183.078.365a4.61,4.61,0,0,0,.574,1.407l.183.286-.626.886.495.495.886-.625ZM1.043,5.733H9.9v-.7l1.277-.261a1.807,1.807,0,0,0,.1-.338H1.043Zm12.612.521a2.554,2.554,0,1,1,2.554,2.554A2.554,2.554,0,0,1,13.655,6.254Zm1.043,0a1.511,1.511,0,1,0,1.511-1.511A1.51,1.51,0,0,0,14.7,6.254Z" transform="translate(0)"/></svg>