<svg xmlns="http://www.w3.org/2000/svg" width="13.998" height="14" viewBox="0 0 13.998 14"><path d="M1.448,11.262A.25.25,0,0,0,1,11.414v1.335a.5.5,0,1,1-1,0v-4H4a.5.5,0,0,1,0,1h-1.3a.25.25,0,0,0-.206.393,5.515,5.515,0,0,0,5.947,2.175A5.412,5.412,0,0,0,12.428,7.9a.758.758,0,0,1,.741-.654H13.2a.727.727,0,0,1,.717.838,7,7,0,0,1-12.466,3.18ZM.26,6.488a.752.752,0,0,1-.172-.6A7,7,0,0,1,12.55,2.738.25.25,0,0,0,13,2.586V1.251a.5.5,0,1,1,1,0v4H10a.5.5,0,0,1,0-1h1.3a.25.25,0,0,0,.206-.393A5.5,5.5,0,0,0,1.573,6.1.75.75,0,0,1,.26,6.488Z"/></svg>