<svg xmlns="http://www.w3.org/2000/svg" width="26.406" height="20" viewBox="0 0 26.406 20"><defs><style>.a{fill:#231f20;}</style></defs><path class="a" d="M13.223,20c-.268,0-6.588-.1-8.6-.29L4.559,19.7C4.5,19.69,4.4,19.68,4.3,19.667a4.385,4.385,0,0,1-2.941-1.316A5.98,5.98,0,0,1,.2,15.325v-.013C.186,15.223,0,13.118,0,11V9.028C0,6.914.186,4.809.194,4.72l0-.027A6.328,6.328,0,0,1,1.352,1.684,4.189,4.189,0,0,1,4.181.309L4.3.294l.047,0C7.873.035,13.145,0,13.2,0h.009c.053,0,5.325.035,8.816.289l.046,0L22.2.309a4.3,4.3,0,0,1,2.846,1.334A6.039,6.039,0,0,1,26.21,4.708V4.72c.008.089.194,2.194.194,4.308V11c0,2.114-.187,4.219-.194,4.308l0,.027a6.328,6.328,0,0,1-1.154,3.009,4.092,4.092,0,0,1-2.8,1.342l-.148.017-.046,0c-3.491.254-8.763.288-8.815.289h-.016ZM4.485,1.831l-.126.015a2.67,2.67,0,0,0-1.865.883,4.813,4.813,0,0,0-.759,2.144c-.017.189-.187,2.2-.187,4.155V11c0,1.984.175,4.022.188,4.162a4.458,4.458,0,0,0,.744,2.122l.014.015a2.894,2.894,0,0,0,1.979.827c.114.013.222.025.322.042,1.954.181,8.181.277,8.443.281.234,0,5.307-.039,8.683-.283l.165-.019a2.545,2.545,0,0,0,1.826-.847,4.912,4.912,0,0,0,.759-2.144c.016-.185.187-2.2.187-4.156V9.028c0-1.988-.176-4.031-.188-4.163a4.529,4.529,0,0,0-.744-2.153l-.006-.007a2.771,2.771,0,0,0-1.9-.858l-.136-.016c-3.4-.245-8.5-.282-8.686-.283S7.91,1.585,4.485,1.831ZM10.2,14.008a1.11,1.11,0,0,1-.545-.961V6.433a1.12,1.12,0,0,1,1.657-.982l6.1,3.335a1.12,1.12,0,0,1-.007,1.968l-6.1,3.278a1.11,1.11,0,0,1-1.1-.025Zm1.072-1.793,4.556-2.45L11.273,7.272Z"/></svg>