<svg xmlns="http://www.w3.org/2000/svg" xmlns:xlink="http://www.w3.org/1999/xlink" width="14" height="14" viewBox="0 0 14 14"><defs><style>.a{fill:url(#a);}.b{fill:url(#b);}.c{fill:url(#c);}.d{fill:url(#d);}.e{fill:url(#e);}.f{fill:url(#f);}.g{fill:url(#g);}.h{fill:url(#h);}.i{fill:url(#i);}.j{fill:url(#j);}.k{fill:url(#k);}.l{fill:url(#l);}.m{fill:url(#m);}.n{fill:url(#n);}.o{fill:url(#o);}.p{fill:url(#p);}.q{fill:url(#q);}.r{fill:url(#r);}.s{fill:url(#s);}.t{fill:url(#t);}.u{fill:url(#u);}.v{fill:url(#v);}.w{fill:url(#w);}.x{fill:url(#x);}.y{fill:url(#y);}.z{fill:url(#z);}.aa{fill:url(#aa);}.ab{fill:url(#ab);}.ac{fill:url(#ac);}.ad{fill:url(#ad);}.ae{fill:url(#ae);}.af{fill:url(#af);}.ag{fill:url(#ag);}.ah{fill:url(#ah);}.ai{fill:url(#ai);}.aj{fill:url(#aj);}.ak{fill:url(#ak);}.al{fill:url(#al);}.am{fill:url(#am);}.an{fill:url(#an);}.ao{fill:url(#ao);}.ap{fill:url(#ap);}.aq{fill:url(#aq);}.ar{fill:url(#ar);}.as{fill:url(#as);}.at{fill:url(#at);}.au{fill:url(#au);}.av{fill:url(#av);}.aw{fill:url(#aw);}.ax{fill:url(#ax);}.ay{fill:url(#ay);}.az{fill:url(#az);}.ba{fill:url(#ba);}.bb{fill:url(#bb);}.bc{fill:url(#bc);}.bd{fill:url(#bd);}.be{fill:url(#be);}.bf{fill:url(#bf);}.bg{fill:url(#bg);}.bh{fill:url(#bh);}.bi{fill:url(#bi);}.bj{fill:url(#bj);}.bk{fill:url(#bk);}.bl{fill:url(#bl);}.bm{fill:url(#bm);}.bn{fill:url(#bn);}.bo{fill:url(#bo);}.bp{fill:url(#bp);}.bq{fill:url(#bq);}.br{fill:url(#br);}.bs{fill:url(#bs);}.bt{fill:url(#bt);}.bu{fill:url(#bu);}.bv{fill:url(#bv);}.bw{fill:url(#bw);}.bx{fill:url(#bx);}.by{fill:url(#by);}.bz{fill:url(#bz);}.ca{fill:url(#ca);}.cb{fill:url(#cb);}.cc{fill:url(#cc);}.cd{fill:url(#cd);}.ce{fill:url(#ce);}.cf{fill:url(#cf);}.cg{fill:url(#cg);}.ch{fill:url(#ch);}.ci{fill:url(#ci);}.cj{fill:url(#cj);}.ck{fill:url(#ck);}.cl{fill:url(#cl);}.cm{fill:url(#cm);}.cn{fill:url(#cn);}.co{fill:url(#co);}.cp{fill:url(#cp);}.cq{fill:url(#cq);}.cr{fill:url(#cr);}.cs{fill:url(#cs);}.ct{fill:url(#ct);}.cu{fill:url(#cu);}.cv{fill:#a25031;}.cw{fill:#69280f;}.cx{fill:url(#cv);}.cy{fill:#040708;}.cz{fill:url(#cw);}.da{fill:url(#cx);}.db{fill:url(#cy);}</style><linearGradient id="a" y1="0.5" x2="1" y2="0.5" gradientUnits="objectBoundingBox"><stop offset="0.006" stop-color="#521803"/><stop offset="0.449" stop-color="#ff8d5f"/><stop offset="0.916" stop-color="#3f1000"/></linearGradient><linearGradient id="b" x1="0.002" y1="0.501" x2="0.999" y2="0.501" xlink:href="#a"/><linearGradient id="c" x1="0.007" y1="0.506" x2="1.005" y2="0.506" xlink:href="#a"/><linearGradient id="d" x1="0.001" y1="0.499" x2="0.998" y2="0.499" xlink:href="#a"/><linearGradient id="e" x1="-0.005" y1="0.494" x2="0.993" y2="0.494" xlink:href="#a"/><linearGradient id="f" x1="0.006" y1="0.496" x2="1.003" y2="0.496" xlink:href="#a"/><linearGradient id="g" x1="-0.001" y1="0.503" x2="0.997" y2="0.503" xlink:href="#a"/><linearGradient id="h" x1="-0.003" y1="0.504" x2="0.994" y2="0.504" xlink:href="#a"/><linearGradient id="i" x1="0.003" y1="0.497" x2="1.001" y2="0.497" xlink:href="#a"/><linearGradient id="j" x1="-0.001" y1="0.5" x2="1.003" y2="0.5" xlink:href="#a"/><linearGradient id="k" x1="0.005" y1="0.5" x2="1" y2="0.5" xlink:href="#a"/><linearGradient id="l" x1="-0.003" y1="0.5" x2="1.001" y2="0.5" xlink:href="#a"/><linearGradient id="m" x1="0" y1="0.5" x2="0.995" y2="0.5" xlink:href="#a"/><linearGradient id="n" x1="-0.003" y1="0.492" x2="1.002" y2="0.492" xlink:href="#a"/><linearGradient id="o" x1="0" y1="0.495" x2="0.995" y2="0.495" xlink:href="#a"/><linearGradient id="p" x1="-0.002" y1="0.508" x2="1.003" y2="0.508" xlink:href="#a"/><linearGradient id="q" x1="0.005" y1="0.505" x2="1" y2="0.505" xlink:href="#a"/><linearGradient id="r" x1="0.003" y1="0.497" x2="1.003" y2="0.497" xlink:href="#a"/><linearGradient id="s" x1="0.01" y1="0.505" x2="1.001" y2="0.505" xlink:href="#a"/><linearGradient id="t" x1="-0.003" y1="0.503" x2="0.997" y2="0.503" xlink:href="#a"/><linearGradient id="u" x1="-0.001" y1="0.495" x2="0.99" y2="0.495" xlink:href="#a"/><linearGradient id="v" x1="-0.002" y1="0.501" x2="0.997" y2="0.501" xlink:href="#a"/><linearGradient id="w" x1="0.005" y1="0.5" x2="1.006" y2="0.5" xlink:href="#a"/><linearGradient id="x" x1="0.003" y1="0.499" x2="1.002" y2="0.499" xlink:href="#a"/><linearGradient id="y" x1="-0.006" y1="0.5" x2="0.995" y2="0.5" xlink:href="#a"/><linearGradient id="z" x1="0.004" y1="0.495" x2="1.005" y2="0.495" xlink:href="#a"/><linearGradient id="aa" x1="0.008" y1="0.502" x2="1.002" y2="0.502" xlink:href="#a"/><linearGradient id="ab" x1="-0.005" y1="0.505" x2="0.996" y2="0.505" xlink:href="#a"/><linearGradient id="ac" x1="-0.002" y1="0.498" x2="0.992" y2="0.498" xlink:href="#a"/><linearGradient id="ad" x1="0" y1="0.49" x2="0.996" y2="0.49" xlink:href="#a"/><linearGradient id="ae" x1="0.002" y1="0.499" x2="1.002" y2="0.499" xlink:href="#a"/><linearGradient id="af" x1="0.004" y1="0.51" x2="1" y2="0.51" xlink:href="#a"/><linearGradient id="ag" x1="-0.002" y1="0.501" x2="0.998" y2="0.501" xlink:href="#a"/><linearGradient id="ah" x1="-0.003" y1="0.497" x2="0.999" y2="0.497" xlink:href="#a"/><linearGradient id="ai" x1="-0.004" y1="0.5" x2="0.996" y2="0.5" xlink:href="#a"/><linearGradient id="aj" x1="0.001" y1="0.503" x2="1.003" y2="0.503" xlink:href="#a"/><linearGradient id="ak" x1="0.004" y1="0.5" x2="1.004" y2="0.5" xlink:href="#a"/><linearGradient id="al" x1="-0.002" y1="0.504" x2="1.002" y2="0.504" xlink:href="#a"/><linearGradient id="am" x1="-0.005" y1="0.499" x2="1.004" y2="0.499" xlink:href="#a"/><linearGradient id="an" x1="-0.002" y1="0.496" x2="1.002" y2="0.496" xlink:href="#a"/><linearGradient id="ao" x1="-0.004" y1="0.501" x2="1.005" y2="0.501" xlink:href="#a"/><linearGradient id="ap" x1="0.001" y1="0.496" x2="1" y2="0.496" xlink:href="#a"/><linearGradient id="aq" x1="0.007" y1="0.496" x2="1.004" y2="0.496" xlink:href="#a"/><linearGradient id="ar" x1="0" y1="0.504" x2="0.999" y2="0.504" xlink:href="#a"/><linearGradient id="as" x1="-0.004" y1="0.504" x2="0.993" y2="0.504" xlink:href="#a"/><linearGradient id="at" x1="0.003" y1="0.496" x2="0.999" y2="0.496" xlink:href="#a"/><linearGradient id="au" x1="-0.008" y1="0.498" x2="0.997" y2="0.498" xlink:href="#a"/><linearGradient id="av" x1="0.001" y1="0.504" x2="0.997" y2="0.504" xlink:href="#a"/><linearGradient id="aw" x1="0.003" y1="0.502" x2="1.008" y2="0.502" xlink:href="#a"/><linearGradient id="ax" x1="0" y1="0.5" x2="1.001" y2="0.5" xlink:href="#a"/><linearGradient id="ay" x1="0.005" y1="0.494" x2="1.007" y2="0.494" xlink:href="#a"/><linearGradient id="az" x1="-0.001" y1="0.5" x2="1" y2="0.5" xlink:href="#a"/><linearGradient id="ba" x1="-0.007" y1="0.506" x2="0.995" y2="0.506" xlink:href="#a"/><linearGradient id="bb" x1="-0.005" y1="0.496" x2="0.997" y2="0.496" xlink:href="#a"/><linearGradient id="bc" x1="0.003" y1="0.502" x2="1.003" y2="0.502" xlink:href="#a"/><linearGradient id="bd" x1="0.002" y1="0.504" x2="1.005" y2="0.504" xlink:href="#a"/><linearGradient id="be" x1="-0.003" y1="0.498" x2="0.997" y2="0.498" xlink:href="#a"/><linearGradient id="bf" x1="0.001" y1="0.499" x2="1" y2="0.499" xlink:href="#a"/><linearGradient id="bg" x1="0" y1="0.498" x2="0.999" y2="0.498" xlink:href="#a"/><linearGradient id="bh" x1="0" y1="0.501" x2="0.999" y2="0.501" xlink:href="#a"/><linearGradient id="bi" x1="0.001" y1="0.502" x2="1" y2="0.502" xlink:href="#a"/><linearGradient id="bj" x1="-0.007" y1="0.5" x2="0.992" y2="0.5" xlink:href="#a"/><linearGradient id="bk" x1="-0.005" y1="0.502" x2="0.994" y2="0.502" xlink:href="#a"/><linearGradient id="bl" x1="0.008" y1="0.5" x2="1.007" y2="0.5" xlink:href="#a"/><linearGradient id="bm" x1="0.006" y1="0.498" x2="1.005" y2="0.498" xlink:href="#a"/><linearGradient id="bn" x1="-0.003" y1="0.497" x2="0.998" y2="0.497" xlink:href="#a"/><linearGradient id="bo" x1="0.004" y1="0.495" x2="1.005" y2="0.495" xlink:href="#a"/><linearGradient id="bp" x1="0.002" y1="0.503" x2="1.003" y2="0.503" xlink:href="#a"/><linearGradient id="bq" x1="-0.005" y1="0.505" x2="0.996" y2="0.505" xlink:href="#a"/><linearGradient id="br" x1="0" y1="0.502" x2="1.003" y2="0.502" xlink:href="#a"/><linearGradient id="bs" x1="0" y1="0.495" x2="1.001" y2="0.495" xlink:href="#a"/><linearGradient id="bt" x1="-0.003" y1="0.497" x2="1" y2="0.497" xlink:href="#a"/><linearGradient id="bu" x1="-0.001" y1="0.506" x2="1" y2="0.506" xlink:href="#a"/><linearGradient id="bv" x1="0" y1="0.496" x2="0.99" y2="0.496" xlink:href="#a"/><linearGradient id="bw" x1="0.004" y1="0.495" x2="1" y2="0.495" xlink:href="#a"/><linearGradient id="bx" x1="0.01" y1="0.504" x2="1" y2="0.504" xlink:href="#a"/><linearGradient id="by" x1="0" y1="0.505" x2="0.996" y2="0.505" xlink:href="#a"/><linearGradient id="bz" x1="-0.007" y1="0.502" x2="0.987" y2="0.502" xlink:href="#a"/><linearGradient id="ca" x1="-0.002" y1="0.498" x2="1" y2="0.498" xlink:href="#a"/><linearGradient id="cb" x1="0.013" y1="0.498" x2="1.007" y2="0.498" xlink:href="#a"/><linearGradient id="cc" x1="0" y1="0.502" x2="1.002" y2="0.502" xlink:href="#a"/><linearGradient id="cd" x1="-0.004" y1="0.502" x2="0.997" y2="0.502" xlink:href="#a"/><linearGradient id="ce" x1="0" y1="0.504" x2="1" y2="0.504" xlink:href="#a"/><linearGradient id="cf" x1="0.003" y1="0.498" x2="1.004" y2="0.498" xlink:href="#a"/><linearGradient id="cg" x1="0" y1="0.496" x2="1" y2="0.496" xlink:href="#a"/><linearGradient id="ch" x1="0" y1="0.5" x2="1.009" y2="0.5" xlink:href="#a"/><linearGradient id="ci" x1="-0.002" y1="0.5" x2="0.999" y2="0.5" xlink:href="#a"/><linearGradient id="cj" x1="-0.009" y1="0.5" x2="1" y2="0.5" xlink:href="#a"/><linearGradient id="ck" x1="0.001" y1="0.5" x2="1.002" y2="0.5" xlink:href="#a"/><linearGradient id="cl" x1="-0.005" y1="0.499" x2="0.997" y2="0.499" xlink:href="#a"/><linearGradient id="cm" x1="-0.002" y1="0.495" x2="0.994" y2="0.495" xlink:href="#a"/><linearGradient id="cn" x1="0.003" y1="0.501" x2="1.005" y2="0.501" xlink:href="#a"/><linearGradient id="co" x1="0.006" y1="0.505" x2="1.002" y2="0.505" xlink:href="#a"/><linearGradient id="cp" x1="-0.001" y1="0.499" x2="0.993" y2="0.499" xlink:href="#a"/><linearGradient id="cq" x1="-0.005" y1="0.505" x2="1" y2="0.505" xlink:href="#a"/><linearGradient id="cr" x1="0.007" y1="0.501" x2="1.001" y2="0.501" xlink:href="#a"/><linearGradient id="cs" x1="0" y1="0.495" x2="1.005" y2="0.495" xlink:href="#a"/><linearGradient id="ct" x1="0.5" y1="1" x2="0.5" y2="0" xlink:href="#a"/><linearGradient id="cu" x1="0" y1="0.5" x2="1" y2="0.5" xlink:href="#a"/><linearGradient id="cv" x1="0.147" y1="0.853" x2="0.853" y2="0.147" xlink:href="#a"/><linearGradient id="cw" x1="-0.443" y1="-0.078" x2="1.218" y2="1.091" xlink:href="#a"/><linearGradient id="cx" x1="-0.185" y1="0.093" x2="1.171" y2="0.898" xlink:href="#a"/><linearGradient id="cy" x1="0.25" y1="0.067" x2="0.75" y2="0.933" xlink:href="#a"/></defs><g transform="translate(-0.496 -0.496)"><g transform="translate(0.496 0.496)"><g transform="translate(0.584 0.684)"><path class="a" d="M7.446,13.913a6.366,6.366,0,1,1,6.366-6.366A6.377,6.377,0,0,1,7.446,13.913Zm0-12.593a6.216,6.216,0,1,0,6.216,6.216A6.223,6.223,0,0,0,7.446,1.32Z" transform="translate(-1.08 -1.18)"/></g><g transform="translate(6.6)"><g transform="translate(0.01 0.692)"><path class="b" d="M7.81,1.95a.71.71,0,0,1-.7-.73C7.11,1.12,7.78,1.23,7.81,1.95Z" transform="translate(-7.11 -1.188)"/></g><path class="c" d="M7.89.5a.706.706,0,0,0-.79.63C7.09,1.23,7.77,1.22,7.89.5Z" transform="translate(-7.1 -0.496)"/></g><g transform="translate(6.61 12.546)"><g transform="translate(0.08)"><path class="d" d="M7.19,13.05a.71.71,0,0,1,.7.73C7.89,13.88,7.22,13.77,7.19,13.05Z" transform="translate(-7.19 -13.05)"/></g><g transform="translate(0 0.775)"><path class="e" d="M7.11,14.5a.706.706,0,0,0,.79-.63C7.91,13.77,7.23,13.78,7.11,14.5Z" transform="translate(-7.11 -13.825)"/></g></g><g transform="translate(5.78 0.014)"><g transform="translate(0.01 0.775)"><path class="f" d="M7.08,1.96a.706.706,0,0,1-.79-.63C6.28,1.23,6.96,1.24,7.08,1.96Z" transform="translate(-6.29 -1.285)"/></g><path class="g" d="M6.98.51a.71.71,0,0,0-.7.73C6.28,1.34,6.95,1.24,6.98.51Z" transform="translate(-6.28 -0.51)"/></g><g transform="translate(7.42 12.533)"><path class="h" d="M7.92,13.04a.706.706,0,0,1,.79.63C8.72,13.77,8.04,13.76,7.92,13.04Z" transform="translate(-7.92 -13.036)"/><g transform="translate(0.1 0.691)"><path class="i" d="M8.02,14.49a.71.71,0,0,0,.7-.73C8.72,13.66,8.05,13.76,8.02,14.49Z" transform="translate(-8.02 -13.727)"/></g></g><g transform="translate(4.966 0.144)"><g transform="translate(0.034 0.834)"><path class="j" d="M6.36,2.06a.7.7,0,0,1-.86-.53C5.47,1.44,6.15,1.37,6.36,2.06Z" transform="translate(-5.499 -1.474)"/></g><path class="k" d="M6.07.64a.7.7,0,0,0-.6.82C5.48,1.55,6.14,1.36,6.07.64Z" transform="translate(-5.465 -0.64)"/></g><g transform="translate(8.139 12.416)"><path class="l" d="M8.64,12.94a.7.7,0,0,1,.86.53C9.53,13.56,8.85,13.63,8.64,12.94Z" transform="translate(-8.64 -12.92)"/><g transform="translate(0.285 0.6)"><path class="m" d="M8.93,14.36a.7.7,0,0,0,.6-.82C9.52,13.45,8.86,13.64,8.93,14.36Z" transform="translate(-8.925 -13.519)"/></g></g><g transform="translate(4.176 0.394)"><g transform="translate(0.064 0.875)"><path class="n" d="M5.66,2.26a.7.7,0,0,1-.92-.41C4.7,1.76,5.36,1.6,5.66,2.26Z" transform="translate(-4.738 -1.765)"/></g><path class="o" d="M5.19.89a.71.71,0,0,0-.49.89C4.72,1.87,5.35,1.59,5.19.89Z" transform="translate(-4.675 -0.89)"/></g><g transform="translate(8.839 12.187)"><path class="p" d="M9.34,12.74a.7.7,0,0,1,.92.41C10.3,13.24,9.64,13.4,9.34,12.74Z" transform="translate(-9.34 -12.69)"/><g transform="translate(0.444 0.513)"><path class="q" d="M9.81,14.11a.71.71,0,0,0,.49-.89C10.28,13.13,9.65,13.41,9.81,14.11Z" transform="translate(-9.784 -13.204)"/></g></g><g transform="translate(3.412 0.744)"><g transform="translate(0.107 0.897)"><path class="r" d="M4.99,2.54a.7.7,0,0,1-.97-.28C3.97,2.17,4.61,1.93,4.99,2.54Z" transform="translate(-4.017 -2.137)"/></g><path class="s" d="M4.34,1.24a.706.706,0,0,0-.37.94C4.01,2.28,4.6,1.92,4.34,1.24Z" transform="translate(-3.911 -1.24)"/></g><g transform="translate(9.508 11.863)"><path class="t" d="M10.01,12.46a.7.7,0,0,1,.97.28C11.03,12.83,10.39,13.07,10.01,12.46Z" transform="translate(-10.01 -12.367)"/><g transform="translate(0.584 0.437)"><path class="u" d="M10.66,13.76a.706.706,0,0,0,.37-.94C10.99,12.72,10.4,13.08,10.66,13.76Z" transform="translate(-10.594 -12.804)"/></g></g><g transform="translate(2.705 1.214)"><g transform="translate(0.163 0.88)"><path class="v" d="M4.37,2.91a.7.7,0,0,1-1-.16C3.31,2.68,3.91,2.35,4.37,2.91Z" transform="translate(-3.366 -2.59)"/></g><path class="w" d="M3.55,1.71a.7.7,0,0,0-.24.98C3.36,2.78,3.89,2.35,3.55,1.71Z" transform="translate(-3.203 -1.71)"/></g><g transform="translate(10.128 11.444)"><path class="x" d="M10.63,12.09a.7.7,0,0,1,1,.16C11.69,12.32,11.09,12.65,10.63,12.09Z" transform="translate(-10.63 -11.947)"/><g transform="translate(0.707 0.351)"><path class="y" d="M11.45,13.29a.7.7,0,0,0,.24-.98C11.64,12.22,11.11,12.65,11.45,13.29Z" transform="translate(-11.337 -12.298)"/></g></g><g transform="translate(2.057 1.774)"><g transform="translate(0.22 0.845)"><path class="z" d="M3.79,3.36a.7.7,0,0,1-1.01-.02C2.71,3.27,3.26,2.86,3.79,3.36Z" transform="translate(-2.774 -3.115)"/></g><path class="aa" d="M2.83,2.27a.7.7,0,0,0-.11,1.01C2.78,3.36,3.25,2.86,2.83,2.27Z" transform="translate(-2.554 -2.27)"/></g><g transform="translate(10.706 10.929)"><path class="ab" d="M11.21,11.64a.7.7,0,0,1,1.01.02C12.29,11.73,11.74,12.14,11.21,11.64Z" transform="translate(-11.21 -11.432)"/><g transform="translate(0.787 0.279)"><path class="ac" d="M12.17,12.73a.7.7,0,0,0,.11-1.01C12.22,11.64,11.75,12.14,12.17,12.73Z" transform="translate(-11.997 -11.712)"/></g></g><g transform="translate(1.486 2.432)"><g transform="translate(0.289 0.777)"><path class="ad" d="M3.29,3.88a.707.707,0,0,1-1.01.11C2.2,3.93,2.7,3.46,3.29,3.88Z" transform="translate(-2.272 -3.707)"/></g><path class="ae" d="M2.19,2.93a.7.7,0,0,0,.02,1.01C2.28,4.01,2.68,3.46,2.19,2.93Z" transform="translate(-1.982 -2.93)"/></g><g transform="translate(11.206 10.342)"><path class="af" d="M11.71,11.12a.707.707,0,0,1,1.01-.11C12.8,11.07,12.3,11.54,11.71,11.12Z" transform="translate(-11.71 -10.844)"/><g transform="translate(0.86 0.21)"><path class="ag" d="M12.81,12.07a.7.7,0,0,0-.02-1.01C12.72,10.99,12.32,11.54,12.81,12.07Z" transform="translate(-12.57 -11.054)"/></g></g><g transform="translate(0.999 3.162)"><g transform="translate(0.363 0.687)"><path class="ah" d="M2.85,4.46a.7.7,0,0,1-.98.24C1.78,4.65,2.21,4.12,2.85,4.46Z" transform="translate(-1.858 -4.347)"/></g><path class="ai" d="M1.64,3.66a.709.709,0,0,0,.15,1C1.87,4.72,2.2,4.12,1.64,3.66Z" transform="translate(-1.495 -3.66)"/></g><g transform="translate(11.646 9.691)"><path class="aj" d="M12.15,10.54a.7.7,0,0,1,.98-.24C13.22,10.35,12.79,10.88,12.15,10.54Z" transform="translate(-12.15 -10.193)"/><g transform="translate(0.891 0.143)"><path class="ak" d="M13.36,11.34a.709.709,0,0,0-.15-1C13.13,10.28,12.8,10.88,13.36,11.34Z" transform="translate(-13.041 -10.336)"/></g></g><g transform="translate(0.601 3.961)"><g transform="translate(0.439 0.568)"><path class="al" d="M2.49,5.09a.7.7,0,0,1-.94.36C1.46,5.42,1.81,4.84,2.49,5.09Z" transform="translate(-1.536 -5.028)"/></g><path class="am" d="M1.19,4.46a.7.7,0,0,0,.28.97C1.55,5.48,1.8,4.84,1.19,4.46Z" transform="translate(-1.097 -4.46)"/></g><g transform="translate(12.006 8.985)"><path class="an" d="M12.51,9.91a.7.7,0,0,1,.94-.36C13.54,9.58,13.19,10.16,12.51,9.91Z" transform="translate(-12.51 -9.486)"/><g transform="translate(0.901 0.081)"><path class="ao" d="M13.81,10.54a.7.7,0,0,0-.28-.97C13.45,9.52,13.2,10.16,13.81,10.54Z" transform="translate(-13.411 -9.567)"/></g></g><g transform="translate(0.294 4.811)"><g transform="translate(0.523 0.431)"><path class="ap" d="M2.22,5.77a.7.7,0,0,1-.89.48C1.24,6.23,1.51,5.6,2.22,5.77Z" transform="translate(-1.313 -5.741)"/></g><path class="aq" d="M.84,5.31a.71.71,0,0,0,.41.93C1.34,6.27,1.5,5.61.84,5.31Z" transform="translate(-0.79 -5.31)"/></g><g transform="translate(12.276 8.221)"><path class="ar" d="M12.78,9.23a.7.7,0,0,1,.89-.48C13.76,8.77,13.49,9.4,12.78,9.23Z" transform="translate(-12.78 -8.722)"/><g transform="translate(0.885 0.037)"><path class="as" d="M14.16,9.69a.71.71,0,0,0-.41-.93C13.66,8.73,13.5,9.39,14.16,9.69Z" transform="translate(-13.665 -8.759)"/></g></g><g transform="translate(0.103 5.7)"><g transform="translate(0.596 0.265)"><path class="at" d="M2.04,6.47a.7.7,0,0,1-.82.6C1.12,7.06,1.32,6.4,2.04,6.47Z" transform="translate(-1.196 -6.465)"/></g><path class="au" d="M.62,6.2a.7.7,0,0,0,.53.86C1.23,7.09,1.31,6.41.62,6.2Z" transform="translate(-0.6 -6.2)"/></g><g transform="translate(12.456 7.424)"><path class="av" d="M12.96,8.53a.7.7,0,0,1,.82-.6C13.88,7.94,13.68,8.6,12.96,8.53Z" transform="translate(-12.96 -7.925)"/><g transform="translate(0.838 0.014)"><path class="aw" d="M14.38,8.8a.7.7,0,0,0-.53-.86C13.77,7.91,13.69,8.59,14.38,8.8Z" transform="translate(-13.798 -7.939)"/></g></g><g transform="translate(0 6.61)"><g transform="translate(0.692 0.08)"><path class="ax" d="M1.95,7.19a.71.71,0,0,1-.73.7C1.12,7.89,1.23,7.22,1.95,7.19Z" transform="translate(-1.188 -7.19)"/></g><path class="ay" d="M.5,7.11a.706.706,0,0,0,.63.79C1.23,7.91,1.22,7.23.5,7.11Z" transform="translate(-0.496 -7.11)"/></g><g transform="translate(12.546 6.6)"><g transform="translate(0 0.01)"><path class="az" d="M13.05,7.81a.71.71,0,0,1,.73-.7C13.88,7.11,13.77,7.78,13.05,7.81Z" transform="translate(-13.05 -7.11)"/></g><g transform="translate(0.775)"><path class="ba" d="M14.5,7.89a.706.706,0,0,0-.63-.79C13.77,7.09,13.78,7.77,14.5,7.89Z" transform="translate(-13.825 -7.1)"/></g></g><g transform="translate(0.014 7.42)"><g transform="translate(0.775)"><path class="bb" d="M1.96,7.92a.706.706,0,0,1-.63.79C1.23,8.72,1.24,8.04,1.96,7.92Z" transform="translate(-1.285 -7.92)"/></g><g transform="translate(0 0.1)"><path class="bc" d="M.51,8.02a.71.71,0,0,0,.73.7C1.34,8.72,1.24,8.05.51,8.02Z" transform="translate(-0.51 -8.02)"/></g></g><g transform="translate(12.533 5.78)"><g transform="translate(0 0.01)"><path class="bd" d="M13.04,7.08a.706.706,0,0,1,.63-.79C13.77,6.28,13.76,6.96,13.04,7.08Z" transform="translate(-13.036 -6.29)"/></g><g transform="translate(0.691)"><path class="be" d="M14.49,6.98a.71.71,0,0,0-.73-.7C13.66,6.28,13.76,6.95,14.49,6.98Z" transform="translate(-13.727 -6.28)"/></g></g><g transform="translate(0.144 8.139)"><g transform="translate(0.834)"><path class="bf" d="M2.06,8.64a.7.7,0,0,1-.53.86C1.44,9.53,1.37,8.85,2.06,8.64Z" transform="translate(-1.474 -8.64)"/></g><g transform="translate(0 0.285)"><path class="bg" d="M.64,8.93a.7.7,0,0,0,.82.6C1.55,9.52,1.36,8.86.64,8.93Z" transform="translate(-0.64 -8.925)"/></g></g><g transform="translate(12.416 4.966)"><g transform="translate(0 0.034)"><path class="bh" d="M12.94,6.36a.7.7,0,0,1,.53-.86C13.56,5.47,13.63,6.15,12.94,6.36Z" transform="translate(-12.92 -5.499)"/></g><g transform="translate(0.6)"><path class="bi" d="M14.36,6.07a.7.7,0,0,0-.82-.6C13.45,5.48,13.64,6.14,14.36,6.07Z" transform="translate(-13.519 -5.465)"/></g></g><g transform="translate(0.394 8.839)"><g transform="translate(0.875)"><path class="bj" d="M2.26,9.34a.7.7,0,0,1-.41.92C1.76,10.3,1.6,9.64,2.26,9.34Z" transform="translate(-1.765 -9.34)"/></g><g transform="translate(0 0.444)"><path class="bk" d="M.89,9.81a.71.71,0,0,0,.89.49C1.87,10.28,1.59,9.65.89,9.81Z" transform="translate(-0.89 -9.784)"/></g></g><g transform="translate(12.187 4.176)"><g transform="translate(0 0.064)"><path class="bl" d="M12.74,5.66a.7.7,0,0,1,.41-.92C13.24,4.7,13.4,5.36,12.74,5.66Z" transform="translate(-12.69 -4.738)"/></g><g transform="translate(0.513)"><path class="bm" d="M14.11,5.19a.71.71,0,0,0-.89-.49C13.13,4.72,13.41,5.35,14.11,5.19Z" transform="translate(-13.204 -4.675)"/></g></g><g transform="translate(0.744 9.508)"><g transform="translate(0.897)"><path class="bn" d="M2.54,10.01a.7.7,0,0,1-.28.97C2.17,11.03,1.93,10.39,2.54,10.01Z" transform="translate(-2.137 -10.01)"/></g><g transform="translate(0 0.584)"><path class="bo" d="M1.24,10.66a.706.706,0,0,0,.94.37C2.28,10.99,1.92,10.4,1.24,10.66Z" transform="translate(-1.24 -10.594)"/></g></g><g transform="translate(11.863 3.412)"><g transform="translate(0 0.107)"><path class="bp" d="M12.46,4.99a.7.7,0,0,1,.28-.97C12.83,3.97,13.07,4.61,12.46,4.99Z" transform="translate(-12.367 -4.017)"/></g><g transform="translate(0.437)"><path class="bq" d="M13.76,4.34a.706.706,0,0,0-.94-.37C12.72,4.01,13.08,4.6,13.76,4.34Z" transform="translate(-12.804 -3.911)"/></g></g><g transform="translate(1.214 10.128)"><g transform="translate(0.88)"><path class="br" d="M2.91,10.63a.7.7,0,0,1-.16,1C2.68,11.69,2.35,11.09,2.91,10.63Z" transform="translate(-2.59 -10.63)"/></g><g transform="translate(0 0.707)"><path class="bs" d="M1.71,11.45a.7.7,0,0,0,.98.24C2.78,11.64,2.35,11.11,1.71,11.45Z" transform="translate(-1.71 -11.337)"/></g></g><g transform="translate(11.444 2.705)"><g transform="translate(0 0.163)"><path class="bt" d="M12.09,4.37a.7.7,0,0,1,.16-1C12.32,3.31,12.65,3.91,12.09,4.37Z" transform="translate(-11.947 -3.366)"/></g><g transform="translate(0.351)"><path class="bu" d="M13.29,3.55a.7.7,0,0,0-.98-.24C12.22,3.36,12.65,3.89,13.29,3.55Z" transform="translate(-12.298 -3.203)"/></g></g><g transform="translate(1.774 10.706)"><g transform="translate(0.845)"><path class="bv" d="M3.36,11.21a.7.7,0,0,1-.02,1.01C3.27,12.29,2.86,11.74,3.36,11.21Z" transform="translate(-3.115 -11.21)"/></g><g transform="translate(0 0.787)"><path class="bw" d="M2.27,12.17a.7.7,0,0,0,1.01.11C3.36,12.22,2.86,11.75,2.27,12.17Z" transform="translate(-2.27 -11.997)"/></g></g><g transform="translate(10.929 2.057)"><g transform="translate(0 0.22)"><path class="bx" d="M11.64,3.79a.7.7,0,0,1,.02-1.01C11.73,2.71,12.14,3.26,11.64,3.79Z" transform="translate(-11.432 -2.774)"/></g><g transform="translate(0.279)"><path class="by" d="M12.73,2.83a.7.7,0,0,0-1.01-.11C11.64,2.78,12.14,3.25,12.73,2.83Z" transform="translate(-11.712 -2.554)"/></g></g><g transform="translate(2.432 11.206)"><g transform="translate(0.777)"><path class="bz" d="M3.88,11.71a.707.707,0,0,1,.11,1.01C3.93,12.8,3.46,12.3,3.88,11.71Z" transform="translate(-3.707 -11.71)"/></g><g transform="translate(0 0.86)"><path class="ca" d="M2.93,12.81a.7.7,0,0,0,1.01-.02C4.01,12.72,3.46,12.32,2.93,12.81Z" transform="translate(-2.93 -12.57)"/></g></g><g transform="translate(10.342 1.486)"><g transform="translate(0 0.289)"><path class="cb" d="M11.12,3.29a.707.707,0,0,1-.11-1.01C11.07,2.2,11.54,2.7,11.12,3.29Z" transform="translate(-10.844 -2.272)"/></g><g transform="translate(0.21)"><path class="cc" d="M12.07,2.19a.7.7,0,0,0-1.01.02C10.99,2.28,11.54,2.68,12.07,2.19Z" transform="translate(-11.054 -1.982)"/></g></g><g transform="translate(3.162 11.646)"><g transform="translate(0.687)"><path class="cd" d="M4.46,12.15a.7.7,0,0,1,.24.98C4.65,13.22,4.12,12.79,4.46,12.15Z" transform="translate(-4.347 -12.15)"/></g><g transform="translate(0 0.891)"><path class="ce" d="M3.66,13.36a.709.709,0,0,0,1-.15C4.72,13.13,4.12,12.8,3.66,13.36Z" transform="translate(-3.66 -13.041)"/></g></g><g transform="translate(9.691 0.999)"><g transform="translate(0 0.363)"><path class="cf" d="M10.54,2.85a.7.7,0,0,1-.24-.98C10.35,1.78,10.88,2.21,10.54,2.85Z" transform="translate(-10.193 -1.858)"/></g><g transform="translate(0.143)"><path class="cg" d="M11.34,1.64a.709.709,0,0,0-1,.15C10.28,1.87,10.88,2.2,11.34,1.64Z" transform="translate(-10.336 -1.495)"/></g></g><g transform="translate(3.961 12.006)"><g transform="translate(0.568)"><path class="ch" d="M5.09,12.51a.7.7,0,0,1,.36.94C5.42,13.54,4.84,13.19,5.09,12.51Z" transform="translate(-5.028 -12.51)"/></g><g transform="translate(0 0.901)"><path class="ci" d="M4.46,13.81a.7.7,0,0,0,.97-.28C5.48,13.45,4.84,13.2,4.46,13.81Z" transform="translate(-4.46 -13.411)"/></g></g><g transform="translate(8.985 0.601)"><g transform="translate(0 0.439)"><path class="cj" d="M9.91,2.49a.7.7,0,0,1-.36-.94C9.58,1.46,10.16,1.81,9.91,2.49Z" transform="translate(-9.486 -1.536)"/></g><g transform="translate(0.081)"><path class="ck" d="M10.54,1.19a.7.7,0,0,0-.97.28C9.52,1.55,10.16,1.8,10.54,1.19Z" transform="translate(-9.567 -1.097)"/></g></g><g transform="translate(4.811 12.276)"><g transform="translate(0.431)"><path class="cl" d="M5.77,12.78a.7.7,0,0,1,.48.89C6.23,13.76,5.6,13.49,5.77,12.78Z" transform="translate(-5.741 -12.78)"/></g><g transform="translate(0 0.885)"><path class="cm" d="M5.31,14.16a.71.71,0,0,0,.93-.41C6.27,13.66,5.61,13.5,5.31,14.16Z" transform="translate(-5.31 -13.665)"/></g></g><g transform="translate(8.221 0.294)"><g transform="translate(0 0.523)"><path class="cn" d="M9.23,2.22a.7.7,0,0,1-.48-.89C8.77,1.24,9.4,1.51,9.23,2.22Z" transform="translate(-8.722 -1.313)"/></g><g transform="translate(0.037)"><path class="co" d="M9.69.84a.71.71,0,0,0-.93.41C8.73,1.34,9.39,1.5,9.69.84Z" transform="translate(-8.759 -0.79)"/></g></g><g transform="translate(5.7 12.456)"><g transform="translate(0.265)"><path class="cp" d="M6.47,12.96a.7.7,0,0,1,.6.82C7.06,13.88,6.4,13.68,6.47,12.96Z" transform="translate(-6.465 -12.96)"/></g><g transform="translate(0 0.838)"><path class="cq" d="M6.2,14.38a.7.7,0,0,0,.86-.53C7.09,13.77,6.41,13.69,6.2,14.38Z" transform="translate(-6.2 -13.798)"/></g></g><g transform="translate(7.424 0.103)"><g transform="translate(0 0.596)"><path class="cr" d="M8.53,2.04a.7.7,0,0,1-.6-.82C7.94,1.12,8.6,1.32,8.53,2.04Z" transform="translate(-7.925 -1.196)"/></g><g transform="translate(0.014)"><path class="cs" d="M8.8.62a.7.7,0,0,0-.86.53C7.91,1.23,8.59,1.31,8.8.62Z" transform="translate(-7.939 -0.6)"/></g></g></g><g transform="translate(1.34 1.34)"><circle class="ct" cx="6.026" cy="6.026" r="6.026" transform="translate(0.13 0.13)"/><path class="cu" d="M7.5,1.6A5.9,5.9,0,1,1,1.6,7.5,5.907,5.907,0,0,1,7.5,1.6Zm0-.26A6.156,6.156,0,1,0,13.653,7.5,6.159,6.159,0,0,0,7.5,1.34Z" transform="translate(-1.34 -1.34)"/></g><g transform="translate(1.627 1.747)"><g transform="translate(0.493 0.563)"><path class="cv" d="M7.426,12.923a5.306,5.306,0,1,1,5.306-5.306A5.31,5.31,0,0,1,7.426,12.923Zm0-10.493a5.186,5.186,0,1,0,5.186,5.186A5.195,5.195,0,0,0,7.426,2.43Z" transform="translate(-2.12 -2.31)"/></g><g transform="translate(5.5)"><g transform="translate(0.01 0.569)"><path class="cv" d="M7.72,2.95a.587.587,0,0,1-.58-.61C7.14,2.26,7.7,2.35,7.72,2.95Z" transform="translate(-7.14 -2.315)"/></g><path class="cv" d="M7.79,1.75a.589.589,0,0,0-.66.53C7.12,2.36,7.69,2.34,7.79,1.75Z" transform="translate(-7.13 -1.747)"/></g><g transform="translate(5.51 10.456)"><g transform="translate(0.07)"><path class="cv" d="M7.21,12.21a.587.587,0,0,1,.58.61C7.79,12.9,7.23,12.81,7.21,12.21Z" transform="translate(-7.21 -12.21)"/></g><g transform="translate(0 0.636)"><path class="cv" d="M7.14,13.41a.589.589,0,0,0,.66-.53C7.81,12.8,7.24,12.82,7.14,13.41Z" transform="translate(-7.14 -12.846)"/></g></g><g transform="translate(4.82 0.003)"><g transform="translate(0.01 0.645)"><path class="cv" d="M7.12,2.96a.589.589,0,0,1-.66-.53C6.45,2.35,7.02,2.36,7.12,2.96Z" transform="translate(-6.46 -2.395)"/></g><path class="cv" d="M7.03,1.75a.587.587,0,0,0-.58.61C6.44,2.45,7.01,2.36,7.03,1.75Z" transform="translate(-6.45 -1.75)"/></g><g transform="translate(6.179 10.443)"><path class="cv" d="M7.81,12.2a.589.589,0,0,1,.66.53C8.48,12.81,7.91,12.8,7.81,12.2Z" transform="translate(-7.81 -12.197)"/><g transform="translate(0.09 0.578)"><path class="cv" d="M7.9,13.41a.587.587,0,0,0,.58-.61C8.49,12.72,7.92,12.8,7.9,13.41Z" transform="translate(-7.9 -12.774)"/></g></g><g transform="translate(4.136 0.113)"><g transform="translate(0.033 0.696)"><path class="cv" d="M6.52,3.04A.585.585,0,0,1,5.8,2.6C5.77,2.53,6.34,2.47,6.52,3.04Z" transform="translate(-5.799 -2.556)"/></g><path class="cv" d="M6.27,1.86a.587.587,0,0,0-.5.68C5.78,2.62,6.33,2.46,6.27,1.86Z" transform="translate(-5.766 -1.86)"/></g><g transform="translate(6.779 10.349)"><path class="cv" d="M8.41,12.12a.585.585,0,0,1,.72.44C9.16,12.63,8.59,12.69,8.41,12.12Z" transform="translate(-8.41 -12.103)"/><g transform="translate(0.245 0.498)"><path class="cv" d="M8.66,13.3a.587.587,0,0,0,.5-.68C9.15,12.54,8.6,12.7,8.66,13.3Z" transform="translate(-8.655 -12.601)"/></g></g><g transform="translate(3.488 0.313)"><g transform="translate(0.042 0.737)"><path class="cv" d="M5.93,3.21a.583.583,0,0,1-.77-.34C5.13,2.79,5.68,2.66,5.93,3.21Z" transform="translate(-5.159 -2.797)"/></g><path class="cv" d="M5.54,2.06a.583.583,0,0,0-.4.74C5.15,2.88,5.67,2.65,5.54,2.06Z" transform="translate(-5.117 -2.06)"/></g><g transform="translate(7.369 10.154)"><path class="cv" d="M9,11.95a.583.583,0,0,1,.77.34C9.8,12.37,9.25,12.5,9,11.95Z" transform="translate(-9 -11.907)"/><g transform="translate(0.369 0.437)"><path class="cv" d="M9.39,13.1a.583.583,0,0,0,.4-.74C9.78,12.28,9.26,12.51,9.39,13.1Z" transform="translate(-9.369 -12.345)"/></g></g><g transform="translate(2.847 0.613)"><g transform="translate(0.082 0.746)"><path class="cv" d="M5.37,3.44a.59.59,0,0,1-.81-.24C4.52,3.14,5.05,2.93,5.37,3.44Z" transform="translate(-4.558 -3.106)"/></g><path class="cv" d="M4.83,2.36a.584.584,0,0,0-.3.79C4.56,3.23,5.04,2.93,4.83,2.36Z" transform="translate(-4.476 -2.36)"/></g><g transform="translate(7.918 9.891)"><path class="cv" d="M9.55,11.72a.59.59,0,0,1,.81.24C10.41,12.02,9.88,12.23,9.55,11.72Z" transform="translate(-9.55 -11.645)"/><g transform="translate(0.497 0.353)"><path class="cv" d="M10.1,12.8a.584.584,0,0,0,.3-.79C10.37,11.93,9.89,12.23,10.1,12.8Z" transform="translate(-10.047 -11.997)"/></g></g><g transform="translate(2.25 1.003)"><g transform="translate(0.138 0.737)"><path class="cv" d="M4.85,3.75a.586.586,0,0,1-.83-.13C3.97,3.56,4.47,3.29,4.85,3.75Z" transform="translate(-4.017 -3.487)"/></g><path class="cv" d="M4.17,2.75a.587.587,0,0,0-.2.82C4.01,3.64,4.46,3.29,4.17,2.75Z" transform="translate(-3.878 -2.75)"/></g><g transform="translate(8.448 9.537)"><path class="cv" d="M10.08,11.41a.586.586,0,0,1,.83.13C10.96,11.6,10.46,11.87,10.08,11.41Z" transform="translate(-10.08 -11.291)"/><g transform="translate(0.583 0.29)"><path class="cv" d="M10.76,12.41a.587.587,0,0,0,.2-.82C10.92,11.52,10.47,11.87,10.76,12.41Z" transform="translate(-10.663 -11.581)"/></g></g><g transform="translate(1.714 1.473)"><g transform="translate(0.184 0.703)"><path class="cv" d="M4.37,4.13a.581.581,0,0,1-.84-.02C3.47,4.05,3.93,3.71,4.37,4.13Z" transform="translate(-3.525 -3.923)"/></g><path class="cv" d="M3.57,3.22a.585.585,0,0,0-.09.84C3.53,4.13,3.92,3.72,3.57,3.22Z" transform="translate(-3.34 -3.22)"/></g><g transform="translate(8.916 9.104)"><path class="cv" d="M10.55,11.03a.581.581,0,0,1,.84.02C11.46,11.11,11,11.45,10.55,11.03Z" transform="translate(-10.55 -10.858)"/><g transform="translate(0.666 0.234)"><path class="cv" d="M11.36,11.94a.585.585,0,0,0,.09-.84C11.4,11.03,11.01,11.45,11.36,11.94Z" transform="translate(-11.216 -11.092)"/></g></g><g transform="translate(1.241 2.022)"><g transform="translate(0.236 0.646)"><path class="cv" d="M3.95,4.56a.585.585,0,0,1-.84.09C3.05,4.6,3.46,4.21,3.95,4.56Z" transform="translate(-3.104 -4.416)"/></g><path class="cv" d="M3.04,3.77a.581.581,0,0,0,.02.84C3.11,4.67,3.45,4.21,3.04,3.77Z" transform="translate(-2.868 -3.77)"/></g><g transform="translate(9.346 8.618)"><path class="cv" d="M10.98,10.6a.585.585,0,0,1,.84-.09C11.88,10.56,11.47,10.95,10.98,10.6Z" transform="translate(-10.98 -10.37)"/><g transform="translate(0.71 0.174)"><path class="cv" d="M11.89,11.39a.581.581,0,0,0-.02-.84C11.82,10.49,11.48,10.95,11.89,11.39Z" transform="translate(-11.69 -10.545)"/></g></g><g transform="translate(0.835 2.632)"><g transform="translate(0.298 0.567)"><path class="cv" d="M3.59,5.04a.587.587,0,0,1-.82.2C2.69,5.2,3.05,4.76,3.59,5.04Z" transform="translate(-2.759 -4.947)"/></g><path class="cv" d="M2.58,4.38a.586.586,0,0,0,.13.83C2.77,5.26,3.04,4.76,2.58,4.38Z" transform="translate(-2.461 -4.38)"/></g><g transform="translate(9.706 8.076)"><path class="cv" d="M11.34,10.12a.587.587,0,0,1,.82-.2C12.23,9.96,11.88,10.4,11.34,10.12Z" transform="translate(-11.34 -9.828)"/><g transform="translate(0.747 0.118)"><path class="cv" d="M12.35,10.78a.586.586,0,0,0-.13-.83C12.16,9.9,11.89,10.4,12.35,10.78Z" transform="translate(-12.087 -9.947)"/></g></g><g transform="translate(0.498 3.291)"><g transform="translate(0.363 0.478)"><path class="cv" d="M3.29,5.57a.584.584,0,0,1-.79.3C2.42,5.85,2.72,5.36,3.29,5.57Z" transform="translate(-2.487 -5.518)"/></g><path class="cv" d="M2.2,5.04a.59.59,0,0,0,.24.81C2.51,5.9,2.71,5.37,2.2,5.04Z" transform="translate(-2.125 -5.04)"/></g><g transform="translate(10.006 7.484)"><path class="cv" d="M11.64,9.59a.584.584,0,0,1,.79-.3C12.5,9.31,12.21,9.8,11.64,9.59Z" transform="translate(-11.64 -9.236)"/><g transform="translate(0.752 0.071)"><path class="cv" d="M12.73,10.12a.59.59,0,0,0-.24-.81C12.42,9.26,12.22,9.8,12.73,10.12Z" transform="translate(-12.392 -9.307)"/></g></g><g transform="translate(0.241 4.001)"><g transform="translate(0.437 0.359)"><path class="cv" d="M3.06,6.13a.583.583,0,0,1-.74.4C2.24,6.52,2.47,6,3.06,6.13Z" transform="translate(-2.305 -6.109)"/></g><path class="cv" d="M1.91,5.75a.583.583,0,0,0,.34.77C2.33,6.56,2.46,6,1.91,5.75Z" transform="translate(-1.867 -5.75)"/></g><g transform="translate(10.236 6.856)"><path class="cv" d="M11.87,9.03a.583.583,0,0,1,.74-.4C12.69,8.64,12.46,9.16,11.87,9.03Z" transform="translate(-11.87 -8.607)"/><g transform="translate(0.734 0.031)"><path class="cv" d="M13.01,9.41a.583.583,0,0,0-.34-.77C12.6,8.6,12.47,9.16,13.01,9.41Z" transform="translate(-12.604 -8.638)"/></g></g><g transform="translate(0.076 4.74)"><g transform="translate(0.508 0.225)"><path class="cv" d="M2.91,6.72a.587.587,0,0,1-.68.5C2.15,7.21,2.31,6.66,2.91,6.72Z" transform="translate(-2.211 -6.715)"/></g><path class="cv" d="M1.72,6.49a.585.585,0,0,0,.44.72C2.24,7.24,2.3,6.67,1.72,6.49Z" transform="translate(-1.703 -6.49)"/></g><g transform="translate(10.386 6.185)"><path class="cv" d="M12.02,8.44a.587.587,0,0,1,.68-.5C12.78,7.95,12.62,8.5,12.02,8.44Z" transform="translate(-12.02 -7.935)"/><g transform="translate(0.7 0.013)"><path class="cv" d="M13.21,8.67a.585.585,0,0,0-.44-.72C12.69,7.92,12.63,8.49,13.21,8.67Z" transform="translate(-12.72 -7.949)"/></g></g><g transform="translate(0 5.5)"><g transform="translate(0.574 0.07)"><path class="cv" d="M2.84,7.32a.587.587,0,0,1-.61.58C2.14,7.91,2.23,7.34,2.84,7.32Z" transform="translate(-2.2 -7.32)"/></g><path class="cv" d="M1.63,7.25a.589.589,0,0,0,.53.66C2.24,7.92,2.23,7.35,1.63,7.25Z" transform="translate(-1.627 -7.25)"/></g><g transform="translate(10.456 5.5)"><g transform="translate(0 0.01)"><path class="cv" d="M12.09,7.84a.587.587,0,0,1,.61-.58C12.78,7.25,12.7,7.82,12.09,7.84Z" transform="translate(-12.09 -7.26)"/></g><g transform="translate(0.645)"><path class="cv" d="M13.3,7.91a.589.589,0,0,0-.53-.66C12.69,7.24,12.7,7.81,13.3,7.91Z" transform="translate(-12.735 -7.25)"/></g></g><g transform="translate(0.013 6.179)"><g transform="translate(0.636)"><path class="cv" d="M2.84,7.93a.589.589,0,0,1-.53.66C2.23,8.6,2.25,8.03,2.84,7.93Z" transform="translate(-2.276 -7.93)"/></g><g transform="translate(0 0.09)"><path class="cv" d="M1.64,8.02a.587.587,0,0,0,.61.58C2.33,8.6,2.24,8.04,1.64,8.02Z" transform="translate(-1.64 -8.02)"/></g></g><g transform="translate(10.453 4.81)"><g transform="translate(0 0.01)"><path class="cv" d="M12.09,7.23a.589.589,0,0,1,.53-.66C12.7,6.56,12.68,7.13,12.09,7.23Z" transform="translate(-12.087 -6.57)"/></g><g transform="translate(0.569)"><path class="cv" d="M13.29,7.14a.587.587,0,0,0-.61-.58C12.6,6.56,12.69,7.12,13.29,7.14Z" transform="translate(-12.655 -6.56)"/></g></g><g transform="translate(0.113 6.779)"><g transform="translate(0.7)"><path class="cv" d="M2.93,8.53a.585.585,0,0,1-.44.72C2.41,9.27,2.35,8.71,2.93,8.53Z" transform="translate(-2.44 -8.53)"/></g><g transform="translate(0 0.237)"><path class="cv" d="M1.74,8.77a.587.587,0,0,0,.68.5C2.51,9.26,2.35,8.72,1.74,8.77Z" transform="translate(-1.74 -8.767)"/></g></g><g transform="translate(10.349 4.136)"><g transform="translate(0 0.024)"><path class="cv" d="M12,6.63a.585.585,0,0,1,.44-.72C12.52,5.89,12.58,6.45,12,6.63Z" transform="translate(-11.983 -5.909)"/></g><g transform="translate(0.498)"><path class="cv" d="M13.18,6.39a.587.587,0,0,0-.68-.5C12.42,5.9,12.58,6.44,13.18,6.39Z" transform="translate(-12.481 -5.886)"/></g></g><g transform="translate(0.323 7.359)"><g transform="translate(0.731)"><path class="cv" d="M3.09,9.11a.583.583,0,0,1-.34.77C2.68,9.92,2.54,9.36,3.09,9.11Z" transform="translate(-2.681 -9.11)"/></g><g transform="translate(0 0.376)"><path class="cv" d="M1.95,9.51a.583.583,0,0,0,.74.4C2.77,9.9,2.54,9.37,1.95,9.51Z" transform="translate(-1.95 -9.486)"/></g></g><g transform="translate(10.164 3.478)"><g transform="translate(0 0.051)"><path class="cv" d="M11.84,6.05a.583.583,0,0,1,.34-.77C12.25,5.24,12.39,5.8,11.84,6.05Z" transform="translate(-11.797 -5.278)"/></g><g transform="translate(0.427)"><path class="cv" d="M12.98,5.65a.583.583,0,0,0-.74-.4C12.16,5.26,12.39,5.79,12.98,5.65Z" transform="translate(-12.225 -5.227)"/></g></g><g transform="translate(0.623 7.918)"><g transform="translate(0.742)"><path class="cv" d="M3.33,9.67a.59.59,0,0,1-.24.81C3.02,10.52,2.82,9.99,3.33,9.67Z" transform="translate(-2.992 -9.67)"/></g><g transform="translate(0 0.488)"><path class="cv" d="M2.25,10.21a.584.584,0,0,0,.79.3C3.11,10.49,2.81,10,2.25,10.21Z" transform="translate(-2.25 -10.158)"/></g></g><g transform="translate(9.891 2.847)"><g transform="translate(0 0.082)"><path class="cv" d="M11.6,5.49a.59.59,0,0,1,.24-.81C11.91,4.64,12.11,5.17,11.6,5.49Z" transform="translate(-11.525 -4.678)"/></g><g transform="translate(0.355)"><path class="cv" d="M12.68,4.95a.584.584,0,0,0-.79-.3C11.82,4.67,12.11,5.16,12.68,4.95Z" transform="translate(-11.88 -4.596)"/></g></g><g transform="translate(1.013 8.438)"><g transform="translate(0.729)"><path class="cv" d="M3.64,10.19a.586.586,0,0,1-.13.83C3.44,11.08,3.17,10.58,3.64,10.19Z" transform="translate(-3.369 -10.19)"/></g><g transform="translate(0 0.587)"><path class="cv" d="M2.64,10.87a.587.587,0,0,0,.82.2C3.53,11.03,3.17,10.59,2.64,10.87Z" transform="translate(-2.64 -10.777)"/></g></g><g transform="translate(9.537 2.25)"><g transform="translate(0 0.137)"><path class="cv" d="M11.29,4.97a.586.586,0,0,1,.13-.83C11.49,4.08,11.76,4.58,11.29,4.97Z" transform="translate(-11.171 -4.135)"/></g><g transform="translate(0.29)"><path class="cv" d="M12.29,4.29a.587.587,0,0,0-.82-.2C11.4,4.13,11.76,4.57,12.29,4.29Z" transform="translate(-11.461 -3.998)"/></g></g><g transform="translate(1.483 8.916)"><g transform="translate(0.698)"><path class="cv" d="M4.01,10.67a.581.581,0,0,1-.02.84C3.93,11.57,3.6,11.11,4.01,10.67Z" transform="translate(-3.808 -10.67)"/></g><g transform="translate(0 0.658)"><path class="cv" d="M3.11,11.47a.585.585,0,0,0,.84.09C4.01,11.52,3.6,11.12,3.11,11.47Z" transform="translate(-3.11 -11.328)"/></g></g><g transform="translate(9.114 1.714)"><g transform="translate(0 0.184)"><path class="cv" d="M10.92,4.49a.581.581,0,0,1,.02-.84C10.99,3.59,11.33,4.05,10.92,4.49Z" transform="translate(-10.748 -3.645)"/></g><g transform="translate(0.226)"><path class="cv" d="M11.82,3.69a.585.585,0,0,0-.84-.09C10.92,3.64,11.33,4.04,11.82,3.69Z" transform="translate(-10.974 -3.46)"/></g></g><g transform="translate(2.022 9.336)"><g transform="translate(0.648)"><path class="cv" d="M4.44,11.09a.585.585,0,0,1,.09.84C4.49,12,4.09,11.59,4.44,11.09Z" transform="translate(-4.298 -11.09)"/></g><g transform="translate(0 0.718)"><path class="cv" d="M3.65,12.01a.581.581,0,0,0,.84-.02C4.56,11.93,4.09,11.6,3.65,12.01Z" transform="translate(-3.65 -11.808)"/></g></g><g transform="translate(8.628 1.231)"><g transform="translate(0 0.244)"><path class="cv" d="M10.49,4.07a.585.585,0,0,1-.09-.84C10.44,3.16,10.84,3.57,10.49,4.07Z" transform="translate(-10.26 -3.222)"/></g><g transform="translate(0.172)"><path class="cv" d="M11.28,3.15a.581.581,0,0,0-.84.02C10.37,3.23,10.83,3.56,11.28,3.15Z" transform="translate(-10.433 -2.978)"/></g></g><g transform="translate(2.632 9.706)"><g transform="translate(0.573)"><path class="cv" d="M4.93,11.46a.587.587,0,0,1,.2.82C5.09,12.35,4.64,11.99,4.93,11.46Z" transform="translate(-4.833 -11.46)"/></g><g transform="translate(0 0.743)"><path class="cv" d="M4.26,12.47a.586.586,0,0,0,.83-.13C5.15,12.28,4.65,12,4.26,12.47Z" transform="translate(-4.26 -12.203)"/></g></g><g transform="translate(8.076 0.825)"><g transform="translate(0 0.3)"><path class="cv" d="M10,3.7a.587.587,0,0,1-.2-.82C9.84,2.81,10.28,3.17,10,3.7Z" transform="translate(-9.708 -2.871)"/></g><g transform="translate(0.127)"><path class="cv" d="M10.67,2.69a.586.586,0,0,0-.83.13C9.78,2.88,10.28,3.16,10.67,2.69Z" transform="translate(-9.835 -2.571)"/></g></g><g transform="translate(3.301 10.006)"><g transform="translate(0.473)"><path class="cv" d="M5.46,11.76a.584.584,0,0,1,.3.79C5.73,12.62,5.24,12.32,5.46,11.76Z" transform="translate(-5.403 -11.76)"/></g><g transform="translate(0 0.746)"><path class="cv" d="M4.93,12.84a.59.59,0,0,0,.81-.24C5.78,12.54,5.25,12.33,4.93,12.84Z" transform="translate(-4.93 -12.506)"/></g></g><g transform="translate(7.484 0.498)"><g transform="translate(0 0.355)"><path class="cv" d="M9.47,3.4a.584.584,0,0,1-.3-.79C9.2,2.54,9.68,2.84,9.47,3.4Z" transform="translate(-9.116 -2.6)"/></g><g transform="translate(0.072)"><path class="cv" d="M10,2.32a.59.59,0,0,0-.81.24C9.15,2.62,9.68,2.83,10,2.32Z" transform="translate(-9.188 -2.245)"/></g></g><g transform="translate(4.011 10.226)"><g transform="translate(0.356)"><path class="cv" d="M6.02,11.98a.583.583,0,0,1,.4.74C6.4,12.8,5.88,12.57,6.02,11.98Z" transform="translate(-5.996 -11.98)"/></g><g transform="translate(0 0.741)"><path class="cv" d="M5.64,13.13a.583.583,0,0,0,.77-.34C6.44,12.72,5.89,12.58,5.64,13.13Z" transform="translate(-5.64 -12.721)"/></g></g><g transform="translate(6.856 0.241)"><g transform="translate(0 0.437)"><path class="cv" d="M8.91,3.18a.583.583,0,0,1-.4-.74C8.53,2.36,9.05,2.59,8.91,3.18Z" transform="translate(-8.487 -2.425)"/></g><g transform="translate(0.032)"><path class="cv" d="M9.29,2.03a.583.583,0,0,0-.77.34C8.49,2.45,9.04,2.58,9.29,2.03Z" transform="translate(-8.519 -1.987)"/></g></g><g transform="translate(4.75 10.376)"><g transform="translate(0.217)"><path class="cv" d="M6.6,12.13a.587.587,0,0,1,.5.68C7.09,12.9,6.55,12.74,6.6,12.13Z" transform="translate(-6.597 -12.13)"/></g><g transform="translate(0 0.7)"><path class="cv" d="M6.38,13.32a.585.585,0,0,0,.72-.44C7.12,12.8,6.55,12.74,6.38,13.32Z" transform="translate(-6.38 -12.83)"/></g></g><g transform="translate(6.185 0.076)"><g transform="translate(0 0.504)"><path class="cv" d="M8.32,3.03a.587.587,0,0,1-.5-.68C7.83,2.26,8.38,2.42,8.32,3.03Z" transform="translate(-7.816 -2.327)"/></g><g transform="translate(0.014)"><path class="cv" d="M8.55,1.84a.585.585,0,0,0-.72.44C7.81,2.36,8.37,2.42,8.55,1.84Z" transform="translate(-7.829 -1.823)"/></g></g></g><g transform="translate(1.627 1.687)"><g transform="translate(0.493 0.563)"><path class="cw" d="M7.426,12.863a5.306,5.306,0,1,1,5.306-5.306A5.31,5.31,0,0,1,7.426,12.863Zm0-10.493a5.186,5.186,0,1,0,5.186,5.186A5.195,5.195,0,0,0,7.426,2.37Z" transform="translate(-2.12 -2.25)"/></g><g transform="translate(5.5)"><g transform="translate(0.01 0.569)"><path class="cw" d="M7.72,2.89a.587.587,0,0,1-.58-.61C7.14,2.2,7.7,2.29,7.72,2.89Z" transform="translate(-7.14 -2.255)"/></g><path class="cw" d="M7.79,1.69a.589.589,0,0,0-.66.53C7.12,2.3,7.69,2.28,7.79,1.69Z" transform="translate(-7.13 -1.687)"/></g><g transform="translate(5.51 10.456)"><g transform="translate(0.07)"><path class="cw" d="M7.21,12.15a.587.587,0,0,1,.58.61C7.79,12.84,7.23,12.75,7.21,12.15Z" transform="translate(-7.21 -12.15)"/></g><g transform="translate(0 0.64)"><path class="cw" d="M7.14,13.35a.589.589,0,0,0,.66-.53C7.81,12.75,7.24,12.76,7.14,13.35Z" transform="translate(-7.14 -12.79)"/></g></g><g transform="translate(4.82 0.003)"><g transform="translate(0.01 0.645)"><path class="cw" d="M7.12,2.9a.589.589,0,0,1-.66-.53C6.45,2.29,7.02,2.3,7.12,2.9Z" transform="translate(-6.46 -2.335)"/></g><path class="cw" d="M7.03,1.69a.587.587,0,0,0-.58.61C6.44,2.39,7.01,2.3,7.03,1.69Z" transform="translate(-6.45 -1.69)"/></g><g transform="translate(6.179 10.443)"><path class="cw" d="M7.81,12.14a.589.589,0,0,1,.66.53C8.48,12.75,7.91,12.74,7.81,12.14Z" transform="translate(-7.81 -12.137)"/><g transform="translate(0.09 0.578)"><path class="cw" d="M7.9,13.35a.587.587,0,0,0,.58-.61C8.49,12.66,7.92,12.74,7.9,13.35Z" transform="translate(-7.9 -12.714)"/></g></g><g transform="translate(4.136 0.113)"><g transform="translate(0.033 0.696)"><path class="cw" d="M6.52,2.98a.585.585,0,0,1-.72-.44C5.77,2.47,6.34,2.41,6.52,2.98Z" transform="translate(-5.799 -2.496)"/></g><path class="cw" d="M6.27,1.8a.587.587,0,0,0-.5.68C5.78,2.56,6.33,2.4,6.27,1.8Z" transform="translate(-5.766 -1.8)"/></g><g transform="translate(6.779 10.349)"><path class="cw" d="M8.41,12.06a.585.585,0,0,1,.72.44C9.16,12.57,8.59,12.63,8.41,12.06Z" transform="translate(-8.41 -12.043)"/><g transform="translate(0.245 0.498)"><path class="cw" d="M8.66,13.24a.587.587,0,0,0,.5-.68C9.15,12.48,8.6,12.64,8.66,13.24Z" transform="translate(-8.655 -12.541)"/></g></g><g transform="translate(3.488 0.313)"><g transform="translate(0.042 0.737)"><path class="cw" d="M5.93,3.15a.583.583,0,0,1-.77-.34C5.13,2.73,5.68,2.6,5.93,3.15Z" transform="translate(-5.159 -2.737)"/></g><path class="cw" d="M5.54,2a.583.583,0,0,0-.4.74C5.15,2.82,5.67,2.59,5.54,2Z" transform="translate(-5.117 -2)"/></g><g transform="translate(7.369 10.154)"><path class="cw" d="M9,11.89a.583.583,0,0,1,.77.34C9.8,12.31,9.25,12.44,9,11.89Z" transform="translate(-9 -11.847)"/><g transform="translate(0.369 0.437)"><path class="cw" d="M9.39,13.04a.583.583,0,0,0,.4-.74C9.78,12.22,9.26,12.45,9.39,13.04Z" transform="translate(-9.369 -12.285)"/></g></g><g transform="translate(2.847 0.613)"><g transform="translate(0.082 0.746)"><path class="cw" d="M5.37,3.38a.59.59,0,0,1-.81-.24C4.52,3.08,5.05,2.87,5.37,3.38Z" transform="translate(-4.558 -3.046)"/></g><path class="cw" d="M4.83,2.3a.584.584,0,0,0-.3.79C4.56,3.17,5.04,2.87,4.83,2.3Z" transform="translate(-4.476 -2.3)"/></g><g transform="translate(7.918 9.891)"><path class="cw" d="M9.55,11.66a.59.59,0,0,1,.81.24C10.41,11.96,9.88,12.17,9.55,11.66Z" transform="translate(-9.55 -11.585)"/><g transform="translate(0.497 0.353)"><path class="cw" d="M10.1,12.74a.584.584,0,0,0,.3-.79C10.37,11.87,9.89,12.17,10.1,12.74Z" transform="translate(-10.047 -11.937)"/></g></g><g transform="translate(2.25 1.003)"><g transform="translate(0.138 0.737)"><path class="cw" d="M4.85,3.69a.586.586,0,0,1-.83-.13C3.97,3.5,4.47,3.23,4.85,3.69Z" transform="translate(-4.017 -3.427)"/></g><path class="cw" d="M4.17,2.69a.587.587,0,0,0-.2.82C4.01,3.58,4.46,3.23,4.17,2.69Z" transform="translate(-3.878 -2.69)"/></g><g transform="translate(8.448 9.537)"><path class="cw" d="M10.08,11.35a.586.586,0,0,1,.83.13C10.96,11.54,10.46,11.81,10.08,11.35Z" transform="translate(-10.08 -11.231)"/><g transform="translate(0.583 0.29)"><path class="cw" d="M10.76,12.35a.587.587,0,0,0,.2-.82C10.92,11.46,10.47,11.82,10.76,12.35Z" transform="translate(-10.663 -11.521)"/></g></g><g transform="translate(1.714 1.473)"><g transform="translate(0.184 0.703)"><path class="cw" d="M4.37,4.07a.581.581,0,0,1-.84-.02C3.47,3.99,3.93,3.65,4.37,4.07Z" transform="translate(-3.525 -3.863)"/></g><path class="cw" d="M3.57,3.16A.585.585,0,0,0,3.48,4C3.53,4.07,3.92,3.66,3.57,3.16Z" transform="translate(-3.34 -3.16)"/></g><g transform="translate(8.916 9.104)"><path class="cw" d="M10.55,10.97a.581.581,0,0,1,.84.02C11.46,11.05,11,11.39,10.55,10.97Z" transform="translate(-10.55 -10.798)"/><g transform="translate(0.666 0.234)"><path class="cw" d="M11.36,11.88a.585.585,0,0,0,.09-.84C11.4,10.97,11.01,11.39,11.36,11.88Z" transform="translate(-11.216 -11.032)"/></g></g><g transform="translate(1.241 2.022)"><g transform="translate(0.236 0.646)"><path class="cw" d="M3.95,4.5a.585.585,0,0,1-.84.09C3.05,4.54,3.46,4.15,3.95,4.5Z" transform="translate(-3.104 -4.356)"/></g><path class="cw" d="M3.04,3.71a.581.581,0,0,0,.02.84C3.11,4.61,3.45,4.15,3.04,3.71Z" transform="translate(-2.868 -3.71)"/></g><g transform="translate(9.346 8.618)"><path class="cw" d="M10.98,10.54a.585.585,0,0,1,.84-.09C11.88,10.5,11.47,10.89,10.98,10.54Z" transform="translate(-10.98 -10.31)"/><g transform="translate(0.71 0.174)"><path class="cw" d="M11.89,11.33a.581.581,0,0,0-.02-.84C11.82,10.43,11.48,10.89,11.89,11.33Z" transform="translate(-11.69 -10.485)"/></g></g><g transform="translate(0.835 2.632)"><g transform="translate(0.298 0.567)"><path class="cw" d="M3.59,4.98a.587.587,0,0,1-.82.2C2.69,5.14,3.05,4.7,3.59,4.98Z" transform="translate(-2.759 -4.887)"/></g><path class="cw" d="M2.58,4.32a.586.586,0,0,0,.13.83C2.77,5.2,3.04,4.7,2.58,4.32Z" transform="translate(-2.461 -4.32)"/></g><g transform="translate(9.706 8.076)"><path class="cw" d="M11.34,10.06a.587.587,0,0,1,.82-.2C12.23,9.9,11.88,10.34,11.34,10.06Z" transform="translate(-11.34 -9.768)"/><g transform="translate(0.747 0.118)"><path class="cw" d="M12.35,10.72a.586.586,0,0,0-.13-.83C12.16,9.84,11.89,10.34,12.35,10.72Z" transform="translate(-12.087 -9.887)"/></g></g><g transform="translate(0.498 3.291)"><g transform="translate(0.363 0.478)"><path class="cw" d="M3.29,5.51a.584.584,0,0,1-.79.3C2.42,5.79,2.72,5.3,3.29,5.51Z" transform="translate(-2.487 -5.458)"/></g><path class="cw" d="M2.2,4.98a.59.59,0,0,0,.24.81C2.51,5.84,2.71,5.31,2.2,4.98Z" transform="translate(-2.125 -4.98)"/></g><g transform="translate(10.006 7.484)"><path class="cw" d="M11.64,9.53a.584.584,0,0,1,.79-.3C12.5,9.25,12.21,9.74,11.64,9.53Z" transform="translate(-11.64 -9.176)"/><g transform="translate(0.752 0.071)"><path class="cw" d="M12.73,10.06a.59.59,0,0,0-.24-.81C12.42,9.2,12.22,9.74,12.73,10.06Z" transform="translate(-12.392 -9.247)"/></g></g><g transform="translate(0.241 4.001)"><g transform="translate(0.437 0.359)"><path class="cw" d="M3.06,6.07a.583.583,0,0,1-.74.4C2.24,6.46,2.47,5.94,3.06,6.07Z" transform="translate(-2.305 -6.049)"/></g><path class="cw" d="M1.91,5.69a.583.583,0,0,0,.34.77C2.33,6.5,2.46,5.94,1.91,5.69Z" transform="translate(-1.867 -5.69)"/></g><g transform="translate(10.236 6.856)"><path class="cw" d="M11.87,8.97a.583.583,0,0,1,.74-.4C12.69,8.58,12.46,9.1,11.87,8.97Z" transform="translate(-11.87 -8.547)"/><g transform="translate(0.734 0.031)"><path class="cw" d="M13.01,9.35a.583.583,0,0,0-.34-.77C12.6,8.54,12.47,9.1,13.01,9.35Z" transform="translate(-12.604 -8.578)"/></g></g><g transform="translate(0.076 4.74)"><g transform="translate(0.508 0.225)"><path class="cw" d="M2.91,6.66a.587.587,0,0,1-.68.5C2.15,7.15,2.31,6.6,2.91,6.66Z" transform="translate(-2.211 -6.655)"/></g><path class="cw" d="M1.72,6.43a.585.585,0,0,0,.44.72C2.24,7.18,2.3,6.61,1.72,6.43Z" transform="translate(-1.703 -6.43)"/></g><g transform="translate(10.386 6.185)"><path class="cw" d="M12.02,8.38a.587.587,0,0,1,.68-.5C12.78,7.89,12.62,8.44,12.02,8.38Z" transform="translate(-12.02 -7.875)"/><g transform="translate(0.7 0.013)"><path class="cw" d="M13.21,8.61a.585.585,0,0,0-.44-.72C12.69,7.86,12.63,8.43,13.21,8.61Z" transform="translate(-12.72 -7.889)"/></g></g><g transform="translate(0 5.5)"><g transform="translate(0.574 0.07)"><path class="cw" d="M2.84,7.26a.587.587,0,0,1-.61.58C2.14,7.85,2.23,7.28,2.84,7.26Z" transform="translate(-2.2 -7.26)"/></g><path class="cw" d="M1.63,7.19a.589.589,0,0,0,.53.66C2.24,7.86,2.23,7.29,1.63,7.19Z" transform="translate(-1.627 -7.19)"/></g><g transform="translate(10.456 5.5)"><g transform="translate(0 0.01)"><path class="cw" d="M12.09,7.78a.587.587,0,0,1,.61-.58C12.78,7.19,12.7,7.76,12.09,7.78Z" transform="translate(-12.09 -7.2)"/></g><g transform="translate(0.645)"><path class="cw" d="M13.3,7.85a.589.589,0,0,0-.53-.66C12.69,7.18,12.7,7.75,13.3,7.85Z" transform="translate(-12.735 -7.19)"/></g></g><g transform="translate(0.013 6.179)"><g transform="translate(0.636)"><path class="cw" d="M2.84,7.87a.589.589,0,0,1-.53.66C2.23,8.54,2.25,7.97,2.84,7.87Z" transform="translate(-2.276 -7.87)"/></g><g transform="translate(0 0.09)"><path class="cw" d="M1.64,7.96a.587.587,0,0,0,.61.58C2.33,8.54,2.24,7.98,1.64,7.96Z" transform="translate(-1.64 -7.96)"/></g></g><g transform="translate(10.453 4.82)"><g transform="translate(0 0)"><path class="cw" d="M12.09,7.17a.589.589,0,0,1,.53-.66C12.7,6.5,12.68,7.07,12.09,7.17Z" transform="translate(-12.087 -6.51)"/></g><g transform="translate(0.569)"><path class="cw" d="M13.29,7.09a.587.587,0,0,0-.61-.58C12.6,6.5,12.69,7.06,13.29,7.09Z" transform="translate(-12.655 -6.51)"/></g></g><g transform="translate(0.113 6.779)"><g transform="translate(0.7)"><path class="cw" d="M2.93,8.47a.585.585,0,0,1-.44.72C2.41,9.21,2.35,8.65,2.93,8.47Z" transform="translate(-2.44 -8.47)"/></g><g transform="translate(0 0.237)"><path class="cw" d="M1.74,8.71a.587.587,0,0,0,.68.5C2.51,9.2,2.35,8.66,1.74,8.71Z" transform="translate(-1.74 -8.707)"/></g></g><g transform="translate(10.349 4.136)"><g transform="translate(0 0.024)"><path class="cw" d="M12,6.57a.585.585,0,0,1,.44-.72C12.52,5.83,12.58,6.39,12,6.57Z" transform="translate(-11.983 -5.849)"/></g><g transform="translate(0.498)"><path class="cw" d="M13.18,6.33a.587.587,0,0,0-.68-.5C12.42,5.84,12.58,6.38,13.18,6.33Z" transform="translate(-12.481 -5.826)"/></g></g><g transform="translate(0.323 7.359)"><g transform="translate(0.731)"><path class="cw" d="M3.09,9.05a.583.583,0,0,1-.34.77C2.68,9.86,2.54,9.3,3.09,9.05Z" transform="translate(-2.681 -9.05)"/></g><g transform="translate(0 0.376)"><path class="cw" d="M1.95,9.45a.583.583,0,0,0,.74.4C2.77,9.84,2.54,9.31,1.95,9.45Z" transform="translate(-1.95 -9.426)"/></g></g><g transform="translate(10.164 3.478)"><g transform="translate(0 0.051)"><path class="cw" d="M11.84,5.99a.583.583,0,0,1,.34-.77C12.25,5.18,12.39,5.74,11.84,5.99Z" transform="translate(-11.797 -5.218)"/></g><g transform="translate(0.427)"><path class="cw" d="M12.98,5.59a.583.583,0,0,0-.74-.4C12.16,5.21,12.39,5.73,12.98,5.59Z" transform="translate(-12.225 -5.167)"/></g></g><g transform="translate(0.623 7.918)"><g transform="translate(0.742)"><path class="cw" d="M3.33,9.61a.59.59,0,0,1-.24.81C3.02,10.46,2.82,9.93,3.33,9.61Z" transform="translate(-2.992 -9.61)"/></g><g transform="translate(0 0.488)"><path class="cw" d="M2.25,10.15a.584.584,0,0,0,.79.3C3.11,10.43,2.81,9.94,2.25,10.15Z" transform="translate(-2.25 -10.098)"/></g></g><g transform="translate(9.891 2.847)"><g transform="translate(0 0.082)"><path class="cw" d="M11.6,5.43a.59.59,0,0,1,.24-.81C11.91,4.58,12.11,5.11,11.6,5.43Z" transform="translate(-11.525 -4.618)"/></g><g transform="translate(0.355)"><path class="cw" d="M12.68,4.89a.584.584,0,0,0-.79-.3C11.82,4.61,12.11,5.1,12.68,4.89Z" transform="translate(-11.88 -4.536)"/></g></g><g transform="translate(1.013 8.438)"><g transform="translate(0.729)"><path class="cw" d="M3.64,10.13a.586.586,0,0,1-.13.83C3.44,11.02,3.17,10.52,3.64,10.13Z" transform="translate(-3.369 -10.13)"/></g><g transform="translate(0 0.587)"><path class="cw" d="M2.64,10.81a.587.587,0,0,0,.82.2C3.53,10.97,3.17,10.53,2.64,10.81Z" transform="translate(-2.64 -10.717)"/></g></g><g transform="translate(9.537 2.25)"><g transform="translate(0 0.137)"><path class="cw" d="M11.29,4.91a.586.586,0,0,1,.13-.83C11.49,4.02,11.76,4.52,11.29,4.91Z" transform="translate(-11.171 -4.075)"/></g><g transform="translate(0.29)"><path class="cw" d="M12.29,4.23a.587.587,0,0,0-.82-.2C11.4,4.07,11.76,4.51,12.29,4.23Z" transform="translate(-11.461 -3.938)"/></g></g><g transform="translate(1.483 8.916)"><g transform="translate(0.698)"><path class="cw" d="M4.01,10.61a.581.581,0,0,1-.02.84C3.93,11.51,3.6,11.05,4.01,10.61Z" transform="translate(-3.808 -10.61)"/></g><g transform="translate(0 0.658)"><path class="cw" d="M3.11,11.41a.585.585,0,0,0,.84.09C4.01,11.46,3.6,11.06,3.11,11.41Z" transform="translate(-3.11 -11.268)"/></g></g><g transform="translate(9.114 1.714)"><g transform="translate(0 0.184)"><path class="cw" d="M10.92,4.43a.581.581,0,0,1,.02-.84C10.99,3.53,11.33,3.99,10.92,4.43Z" transform="translate(-10.748 -3.585)"/></g><g transform="translate(0.226)"><path class="cw" d="M11.82,3.63a.585.585,0,0,0-.84-.09C10.92,3.58,11.33,3.98,11.82,3.63Z" transform="translate(-10.974 -3.4)"/></g></g><g transform="translate(2.022 9.336)"><g transform="translate(0.648)"><path class="cw" d="M4.44,11.03a.585.585,0,0,1,.09.84C4.49,11.94,4.09,11.53,4.44,11.03Z" transform="translate(-4.298 -11.03)"/></g><g transform="translate(0 0.718)"><path class="cw" d="M3.65,11.95a.581.581,0,0,0,.84-.02C4.56,11.87,4.09,11.54,3.65,11.95Z" transform="translate(-3.65 -11.748)"/></g></g><g transform="translate(8.628 1.231)"><g transform="translate(0 0.244)"><path class="cw" d="M10.49,4.01a.585.585,0,0,1-.09-.84C10.44,3.1,10.84,3.51,10.49,4.01Z" transform="translate(-10.26 -3.162)"/></g><g transform="translate(0.172)"><path class="cw" d="M11.28,3.09a.581.581,0,0,0-.84.02C10.37,3.17,10.83,3.5,11.28,3.09Z" transform="translate(-10.433 -2.918)"/></g></g><g transform="translate(2.632 9.706)"><g transform="translate(0.573)"><path class="cw" d="M4.93,11.4a.587.587,0,0,1,.2.82C5.09,12.29,4.64,11.93,4.93,11.4Z" transform="translate(-4.833 -11.4)"/></g><g transform="translate(0 0.743)"><path class="cw" d="M4.26,12.41a.586.586,0,0,0,.83-.13C5.15,12.22,4.65,11.94,4.26,12.41Z" transform="translate(-4.26 -12.143)"/></g></g><g transform="translate(8.076 0.825)"><g transform="translate(0 0.3)"><path class="cw" d="M10,3.64a.587.587,0,0,1-.2-.82C9.84,2.75,10.28,3.11,10,3.64Z" transform="translate(-9.708 -2.811)"/></g><g transform="translate(0.127)"><path class="cw" d="M10.67,2.63a.586.586,0,0,0-.83.13C9.78,2.82,10.28,3.1,10.67,2.63Z" transform="translate(-9.835 -2.511)"/></g></g><g transform="translate(3.301 10.006)"><g transform="translate(0.473)"><path class="cw" d="M5.46,11.7a.584.584,0,0,1,.3.79C5.73,12.56,5.24,12.26,5.46,11.7Z" transform="translate(-5.403 -11.7)"/></g><g transform="translate(0 0.746)"><path class="cw" d="M4.93,12.78a.59.59,0,0,0,.81-.24C5.78,12.48,5.25,12.27,4.93,12.78Z" transform="translate(-4.93 -12.446)"/></g></g><g transform="translate(7.484 0.498)"><g transform="translate(0 0.355)"><path class="cw" d="M9.47,3.34a.584.584,0,0,1-.3-.79C9.2,2.48,9.68,2.78,9.47,3.34Z" transform="translate(-9.116 -2.54)"/></g><g transform="translate(0.072)"><path class="cw" d="M10,2.26a.59.59,0,0,0-.81.24C9.15,2.56,9.68,2.77,10,2.26Z" transform="translate(-9.188 -2.185)"/></g></g><g transform="translate(4.011 10.226)"><g transform="translate(0.356)"><path class="cw" d="M6.02,11.92a.583.583,0,0,1,.4.74C6.4,12.74,5.88,12.51,6.02,11.92Z" transform="translate(-5.996 -11.92)"/></g><g transform="translate(0 0.741)"><path class="cw" d="M5.64,13.07a.583.583,0,0,0,.77-.34C6.44,12.66,5.89,12.52,5.64,13.07Z" transform="translate(-5.64 -12.661)"/></g></g><g transform="translate(6.856 0.241)"><g transform="translate(0 0.437)"><path class="cw" d="M8.91,3.12a.583.583,0,0,1-.4-.74C8.53,2.3,9.05,2.53,8.91,3.12Z" transform="translate(-8.487 -2.365)"/></g><g transform="translate(0.032)"><path class="cw" d="M9.29,1.97a.583.583,0,0,0-.77.34C8.49,2.39,9.04,2.52,9.29,1.97Z" transform="translate(-8.519 -1.927)"/></g></g><g transform="translate(4.75 10.376)"><g transform="translate(0.217)"><path class="cw" d="M6.6,12.07a.587.587,0,0,1,.5.68C7.09,12.84,6.55,12.68,6.6,12.07Z" transform="translate(-6.597 -12.07)"/></g><g transform="translate(0 0.704)"><path class="cw" d="M6.38,13.26a.585.585,0,0,0,.72-.44C7.12,12.75,6.55,12.68,6.38,13.26Z" transform="translate(-6.38 -12.774)"/></g></g><g transform="translate(6.185 0.076)"><g transform="translate(0 0.504)"><path class="cw" d="M8.32,2.97a.587.587,0,0,1-.5-.68C7.83,2.2,8.38,2.37,8.32,2.97Z" transform="translate(-7.816 -2.267)"/></g><g transform="translate(0.014)"><path class="cw" d="M8.55,1.78a.585.585,0,0,0-.72.44C7.81,2.3,8.37,2.36,8.55,1.78Z" transform="translate(-7.829 -1.763)"/></g></g></g><g transform="translate(1.21 1.21)"><path class="cx" d="M7.5,13.783A6.286,6.286,0,1,1,13.783,7.5,6.291,6.291,0,0,1,7.5,13.783ZM7.5,1.47A6.027,6.027,0,1,0,13.523,7.5,6.033,6.033,0,0,0,7.5,1.47Z" transform="translate(-1.21 -1.21)"/></g><circle class="cy" cx="4.496" cy="4.496" r="4.496" transform="translate(3 3)"/><g transform="translate(6.006 5.556)"><path class="cz" d="M9,9.42c0,.01-.01.02-.04.02a1.036,1.036,0,0,1-.16-.01H8.64a1.156,1.156,0,0,0-.17.01c-.08,0-.14.01-.18.01s-.07-.02-.1-.07c-.06-.13-.23-.51-.5-1.17a.222.222,0,0,0-.2-.12H7.24a4.047,4.047,0,0,0-.45.01c-.05,0-.07.05-.07.14,0,.13.01.32.02.58s.02.45.02.58a.053.053,0,0,1-.06.06,1.227,1.227,0,0,1-.17-.01c-.08-.01-.13-.02-.17-.02a.817.817,0,0,0-.14.01c-.06,0-.11.01-.14.01-.05,0-.07-.02-.07-.06,0-.2.01-.51.03-.92s.03-.72.03-.92c0-.58-.02-1.21-.06-1.87V5.64q0-.06.12-.06c.16,0,.4,0,.71-.01s.55-.01.71-.01a1.6,1.6,0,0,1,.99.29,1.084,1.084,0,0,1,.39.91,1.655,1.655,0,0,1-.11.65,1.237,1.237,0,0,1-.43.47c-.03.02-.05.04-.05.07a8,8,0,0,0,.33.74A7.3,7.3,0,0,1,9,9.42ZM8.24,6.91a.718.718,0,0,0-.29-.67,1.716,1.716,0,0,0-.77-.12c-.3,0-.45.02-.46.07-.01.1-.02.37-.02.8v.53c.01,0,.02.01.04.01s.09.01.16.01c.18.01.36.01.57.01C7.99,7.56,8.24,7.34,8.24,6.91Z" transform="translate(-6.01 -5.56)"/></g><path class="da" d="M7.5,3.26A4.237,4.237,0,1,1,3.26,7.5,4.239,4.239,0,0,1,7.5,3.26ZM7.5,3a4.5,4.5,0,1,0,4.5,4.5A4.5,4.5,0,0,0,7.5,3Z" transform="translate(0 0)"/><g transform="translate(2.866 2.866)"><path class="db" d="M7.5,12.13A4.63,4.63,0,1,1,12.13,7.5,4.639,4.639,0,0,1,7.5,12.13Zm0-9A4.37,4.37,0,1,0,11.87,7.5,4.374,4.374,0,0,0,7.5,3.13Z" transform="translate(-2.87 -2.87)"/></g></g></svg>