<svg xmlns="http://www.w3.org/2000/svg" width="24.001" height="24" viewBox="0 0 24.001 24"><defs><style>.a{fill:#231f20;}</style></defs><g transform="translate(0 -0.011)"><g transform="translate(0 0.011)"><path class="a" d="M20.671,3.7A12,12,0,1,0,3.693,20.645c.007.007.009.017.016.023.069.067.145.123.215.188.193.171.386.349.589.514.109.086.222.171.333.25.192.143.384.286.584.418.136.086.277.171.416.257.185.111.369.224.56.326.162.086.327.159.492.237.18.086.357.171.542.248s.369.137.556.2.348.129.527.183c.2.061.41.108.615.159.171.042.338.09.514.124.236.047.476.077.716.11.148.021.293.05.443.064.392.039.788.06,1.188.06s.8-.021,1.188-.06c.15-.015.295-.044.443-.064.24-.033.48-.063.716-.11.171-.034.343-.086.514-.124.206-.051.413-.1.615-.159.179-.055.352-.122.527-.183s.374-.129.556-.2.362-.164.542-.248c.165-.078.33-.152.492-.237.191-.1.375-.214.56-.326.14-.086.28-.164.416-.257.2-.132.392-.275.584-.418.111-.086.224-.163.333-.25.2-.163.4-.336.589-.514.07-.064.146-.121.215-.188.007-.006.009-.016.016-.023A11.982,11.982,0,0,0,20.671,3.7ZM18.745,19.748c-.156.137-.317.267-.48.393-.1.074-.192.147-.291.217-.155.112-.313.219-.473.32-.117.075-.236.147-.356.217q-.226.129-.459.257c-.137.07-.277.136-.417.2s-.3.135-.447.2-.313.118-.471.171-.29.1-.436.145c-.171.051-.35.093-.528.136-.139.033-.276.069-.416.1-.2.039-.41.067-.619.1-.118.015-.236.037-.355.049-.329.032-.662.051-1,.051s-.67-.019-1-.051c-.119-.012-.236-.033-.355-.049-.208-.028-.416-.056-.619-.1-.141-.027-.278-.064-.416-.1-.177-.043-.354-.086-.528-.136-.147-.044-.291-.1-.436-.145s-.317-.111-.471-.171-.3-.128-.447-.2-.28-.131-.417-.2c-.155-.081-.308-.165-.459-.257-.12-.07-.239-.142-.356-.217-.16-.1-.318-.208-.473-.32-.1-.07-.195-.143-.291-.217-.163-.126-.324-.257-.48-.393-.038-.028-.072-.064-.109-.1a6.875,6.875,0,0,1,4.673-6.422,5.081,5.081,0,0,0,4.365,0,6.875,6.875,0,0,1,4.673,6.422C18.816,19.683,18.782,19.716,18.745,19.748ZM9.009,6.881a3.428,3.428,0,1,1,4.668,4.668.018.018,0,0,0-.015.005,3.631,3.631,0,0,1-.716.3c-.045.013-.086.03-.133.041-.086.022-.176.038-.264.053a3.471,3.471,0,0,1-.5.051h-.1a3.471,3.471,0,0,1-.5-.051c-.086-.015-.177-.031-.264-.053-.045-.011-.086-.028-.133-.041a3.628,3.628,0,0,1-.716-.3l-.015-.005A3.428,3.428,0,0,1,9.009,6.881Zm11.363,11.07h0a8.612,8.612,0,0,0-4.588-5.907,5.141,5.141,0,1,0-7.575,0,8.612,8.612,0,0,0-4.588,5.907,10.283,10.283,0,1,1,16.751,0Z" transform="translate(0 -0.011)"/></g></g></svg>